<svg xmlns="http://www.w3.org/2000/svg" xmlns:xlink="http://www.w3.org/1999/xlink" width="50" zoomAndPan="magnify" viewBox="0 0 37.5 37.499999" height="50" preserveAspectRatio="xMidYMid meet" version="1.0"><defs><clipPath id="eae5502b57"><path d="M 4 1.035156 L 33 1.035156 L 33 15 L 4 15 Z M 4 1.035156 " clip-rule="nonzero"/></clipPath><clipPath id="8f0e2ff17c"><path d="M 12 1.035156 L 25 1.035156 L 25 15 L 12 15 Z M 12 1.035156 " clip-rule="nonzero"/></clipPath><clipPath id="888cc698fb"><path d="M 3.523438 12 L 6 12 L 6 15 L 3.523438 15 Z M 3.523438 12 " clip-rule="nonzero"/></clipPath><clipPath id="2372d6ad5d"><path d="M 31 12 L 33.128906 12 L 33.128906 15 L 31 15 Z M 31 12 " clip-rule="nonzero"/></clipPath><clipPath id="2366855581"><path d="M 12.425781 19 L 19 19 L 19 25 L 12.425781 25 Z M 12.425781 19 " clip-rule="nonzero"/></clipPath><clipPath id="90da0ea790"><path d="M 18 16 L 24.265625 16 L 24.265625 21 L 18 21 Z M 18 16 " clip-rule="nonzero"/></clipPath><clipPath id="a7b1cf5de9"><path d="M 12.425781 15.542969 L 23 15.542969 L 23 22 L 12.425781 22 Z M 12.425781 15.542969 " clip-rule="nonzero"/></clipPath><clipPath id="cb9b19461f"><path d="M 17 15.542969 L 19 15.542969 L 19 16 L 17 16 Z M 17 15.542969 " clip-rule="nonzero"/></clipPath><clipPath id="c0016c4c5a"><path d="M 13 15.542969 L 22 15.542969 L 22 21 L 13 21 Z M 13 15.542969 " clip-rule="nonzero"/></clipPath><clipPath id="4ecdb0baae"><path d="M 17 15.542969 L 20 15.542969 L 20 18 L 17 18 Z M 17 15.542969 " clip-rule="nonzero"/></clipPath><clipPath id="af04813b0f"><path d="M 18 15.542969 L 20 15.542969 L 20 17 L 18 17 Z M 18 15.542969 " clip-rule="nonzero"/></clipPath><clipPath id="36110b0b51"><path d="M 13 15.542969 L 19 15.542969 L 19 20 L 13 20 Z M 13 15.542969 " clip-rule="nonzero"/></clipPath><clipPath id="2b3054aea9"><path d="M 23 18 L 24.265625 18 L 24.265625 21 L 23 21 Z M 23 18 " clip-rule="nonzero"/></clipPath></defs><path fill="#c9c8db" d="M 12.179688 22.714844 L 4.511719 13.625 C 4.324219 13.40625 4.347656 13.074219 4.570312 12.882812 C 4.792969 12.695312 5.121094 12.722656 5.308594 12.945312 L 12.976562 22.03125 C 13.164062 22.253906 13.136719 22.585938 12.917969 22.773438 C 12.695312 22.964844 12.363281 22.933594 12.179688 22.714844 Z M 12.179688 22.714844 " fill-opacity="1" fill-rule="nonzero"/><path fill="#c9c8db" d="M 23.84375 22.769531 C 23.625 22.578125 23.601562 22.246094 23.792969 22.027344 L 31.757812 12.859375 C 31.949219 12.636719 32.28125 12.617188 32.496094 12.808594 C 32.714844 13 32.734375 13.332031 32.542969 13.550781 L 24.582031 22.71875 C 24.390625 22.9375 24.058594 22.960938 23.84375 22.769531 Z M 23.84375 22.769531 " fill-opacity="1" fill-rule="nonzero"/><path fill="#c9c8db" d="M 17.28125 20.355469 L 12.636719 14.339844 C 12.460938 14.109375 12.5 13.777344 12.730469 13.601562 C 12.953125 13.421875 13.285156 13.460938 13.464844 13.691406 L 18.105469 19.707031 C 18.285156 19.9375 18.242188 20.269531 18.015625 20.449219 C 17.789062 20.625 17.460938 20.585938 17.28125 20.355469 Z M 17.28125 20.355469 " fill-opacity="1" fill-rule="nonzero"/><path fill="#c9c8db" d="M 19.292969 20.558594 C 18.863281 20.558594 18.613281 20.058594 18.878906 19.710938 L 23.539062 13.609375 C 23.71875 13.375 24.042969 13.335938 24.273438 13.511719 C 24.5 13.6875 24.542969 14.019531 24.367188 14.25 L 19.710938 20.351562 C 19.605469 20.488281 19.449219 20.558594 19.292969 20.558594 Z M 19.292969 20.558594 " fill-opacity="1" fill-rule="nonzero"/><path fill="#f89d28" d="M 25.039062 27.394531 C 25.039062 31.015625 22.441406 33.945312 19.230469 34.59375 L 19.230469 34.753906 L 17.695312 34.753906 C 15.242188 34.753906 13.070312 33.527344 11.746094 31.660156 C 10.898438 30.453125 10.402344 28.976562 10.402344 27.394531 C 10.402344 23.320312 13.644531 20.03125 17.695312 20.03125 L 19.230469 20.03125 L 19.230469 20.191406 C 22.621094 20.902344 25.039062 23.929688 25.039062 27.394531 Z M 25.039062 27.394531 " fill-opacity="1" fill-rule="nonzero"/><path fill="#fed667" d="M 26.527344 27.390625 C 26.527344 29.707031 25.46875 31.769531 23.816406 33.121094 C 20.542969 35.796875 15.695312 35.128906 13.246094 31.660156 L 13.246094 31.65625 C 12.394531 30.453125 11.894531 28.980469 11.894531 27.390625 C 11.894531 23.332031 15.164062 20.023438 19.210938 20.023438 C 21.164062 20.023438 22.941406 20.792969 24.253906 22.054688 C 25.652344 23.394531 26.527344 25.292969 26.527344 27.390625 Z M 26.527344 27.390625 " fill-opacity="1" fill-rule="nonzero"/><path fill="#f57d37" d="M 24.636719 27.390625 C 24.636719 31.996094 19.382812 34.4375 15.882812 31.734375 C 14.695312 30.828125 13.757812 29.222656 13.757812 27.390625 C 13.757812 26.09375 14.21875 24.894531 14.972656 23.945312 C 17.507812 20.78125 22.53125 21.410156 24.175781 25.199219 C 24.480469 25.875 24.636719 26.613281 24.636719 27.390625 Z M 24.636719 27.390625 " fill-opacity="1" fill-rule="nonzero"/><path fill="#f89d28" d="M 23.457031 27.390625 C 23.457031 30.117188 21.425781 32.519531 18.601562 32.828125 C 15.734375 32.503906 13.757812 30.074219 13.757812 27.390625 C 13.757812 24.617188 15.84375 22.234375 18.632812 21.953125 C 21.136719 22.15625 23.457031 24.484375 23.457031 27.390625 Z M 23.457031 27.390625 " fill-opacity="1" fill-rule="nonzero"/><path fill="#ffffff" d="M 20.226562 29.5 C 20.050781 29.59375 19.839844 29.667969 19.601562 29.699219 L 19.601562 30.164062 C 19.601562 30.59375 18.953125 30.59375 18.953125 30.164062 L 18.953125 29.722656 C 18.460938 29.6875 18.042969 29.550781 17.738281 29.371094 C 17.339844 29.128906 17.589844 28.5 18.03125 28.742188 C 18.429688 28.972656 18.835938 29.035156 19.203125 29.035156 C 20.039062 29.035156 20.257812 28.539062 20.050781 28.183594 C 19.765625 27.71875 18.46875 27.898438 17.882812 27.277344 C 17.519531 26.898438 17.507812 26.234375 17.78125 25.800781 C 17.988281 25.464844 18.367188 25.1875 18.953125 25.125 L 18.953125 24.652344 C 18.953125 24.21875 19.601562 24.230469 19.601562 24.652344 L 19.601562 25.105469 C 19.933594 25.136719 20.351562 25.273438 20.636719 25.496094 C 20.96875 25.757812 20.699219 26.285156 20.257812 26.03125 C 19.820312 25.769531 19.023438 25.675781 18.648438 25.96875 C 18.34375 26.210938 18.355469 26.621094 18.554688 26.8125 C 18.898438 27.140625 20.101562 27.054688 20.636719 27.601562 C 21.097656 28.066406 21.066406 29.058594 20.226562 29.5 Z M 20.226562 29.5 " fill-opacity="1" fill-rule="nonzero"/><g clip-path="url(#eae5502b57)"><path fill="#ed3e43" d="M 32.851562 13.375 C 32.882812 13.601562 32.578125 13.714844 32.457031 13.523438 C 31.707031 12.316406 30.289062 11.503906 28.671875 11.503906 C 26.734375 11.503906 25.09375 12.664062 24.523438 14.277344 C 24.484375 14.382812 24.390625 14.445312 24.292969 14.453125 C 23.992188 14.464844 24.117188 14.203125 23.523438 13.484375 C 21.039062 10.433594 14.589844 11.121094 13.214844 14.300781 C 13.121094 14.515625 12.816406 14.496094 12.734375 14.277344 C 11.601562 11.070312 6.921875 10.496094 4.921875 13.339844 C 4.761719 13.570312 4.398438 13.4375 4.441406 13.15625 C 5.5625 6.285156 11.488281 1.039062 18.628906 1.039062 L 18.632812 1.039062 C 25.847656 1.039062 31.820312 6.394531 32.851562 13.375 Z M 32.851562 13.375 " fill-opacity="1" fill-rule="nonzero"/></g><g clip-path="url(#8f0e2ff17c)"><path fill="#e4e3ef" d="M 24.128906 14.453125 C 23.828125 14.464844 23.953125 14.203125 23.359375 13.484375 C 20.867188 10.503906 14.597656 11.035156 13.160156 14.359375 C 13.109375 14.46875 12.902344 14.457031 12.800781 14.453125 C 13.011719 7.113281 15.757812 1.042969 18.464844 1.039062 L 18.46875 1.039062 C 21.460938 1.042969 23.914062 6.953125 24.128906 14.453125 Z M 24.128906 14.453125 " fill-opacity="1" fill-rule="nonzero"/></g><path fill="#ffffff" d="M 26.933594 6.53125 C 26.03125 5.164062 24.785156 4.6875 24.773438 4.679688 C 24.503906 4.578125 24.363281 4.277344 24.464844 4.003906 C 24.5625 3.730469 24.859375 3.59375 25.132812 3.691406 C 25.195312 3.714844 26.703125 4.28125 27.800781 5.945312 C 27.960938 6.1875 27.898438 6.515625 27.65625 6.675781 C 27.414062 6.839844 27.089844 6.769531 26.933594 6.53125 Z M 26.933594 6.53125 " fill-opacity="0.23" fill-rule="nonzero"/><path fill="#364e5a" d="M 25.136719 13.410156 C 25.136719 13.546875 25.113281 13.679688 25.058594 13.808594 C 25.007812 13.9375 24.933594 14.046875 24.835938 14.144531 C 24.738281 14.246094 24.625 14.320312 24.5 14.371094 C 24.371094 14.425781 24.238281 14.453125 24.101562 14.453125 C 23.964844 14.453125 23.832031 14.425781 23.707031 14.371094 C 23.578125 14.320312 23.46875 14.246094 23.371094 14.144531 C 23.273438 14.046875 23.199219 13.9375 23.144531 13.808594 C 23.09375 13.679688 23.066406 13.546875 23.066406 13.410156 C 23.066406 13.269531 23.09375 13.136719 23.144531 13.007812 C 23.199219 12.882812 23.273438 12.769531 23.371094 12.671875 C 23.46875 12.574219 23.578125 12.496094 23.707031 12.445312 C 23.832031 12.390625 23.964844 12.367188 24.101562 12.367188 C 24.238281 12.367188 24.371094 12.390625 24.5 12.445312 C 24.625 12.496094 24.738281 12.574219 24.835938 12.671875 C 24.933594 12.769531 25.007812 12.882812 25.058594 13.007812 C 25.113281 13.136719 25.136719 13.269531 25.136719 13.410156 Z M 25.136719 13.410156 " fill-opacity="1" fill-rule="nonzero"/><path fill="#364e5a" d="M 13.835938 13.410156 C 13.835938 13.546875 13.8125 13.679688 13.757812 13.808594 C 13.707031 13.9375 13.628906 14.046875 13.535156 14.144531 C 13.4375 14.246094 13.324219 14.320312 13.199219 14.371094 C 13.070312 14.425781 12.9375 14.453125 12.800781 14.453125 C 12.664062 14.453125 12.53125 14.425781 12.40625 14.371094 C 12.277344 14.320312 12.164062 14.246094 12.070312 14.144531 C 11.972656 14.046875 11.898438 13.9375 11.84375 13.808594 C 11.792969 13.679688 11.765625 13.546875 11.765625 13.410156 C 11.765625 13.269531 11.792969 13.136719 11.84375 13.007812 C 11.898438 12.882812 11.972656 12.769531 12.070312 12.671875 C 12.164062 12.574219 12.277344 12.496094 12.40625 12.445312 C 12.53125 12.390625 12.664062 12.367188 12.800781 12.367188 C 12.9375 12.367188 13.070312 12.390625 13.199219 12.445312 C 13.324219 12.496094 13.4375 12.574219 13.535156 12.671875 C 13.628906 12.769531 13.707031 12.882812 13.757812 13.007812 C 13.8125 13.136719 13.835938 13.269531 13.835938 13.410156 Z M 13.835938 13.410156 " fill-opacity="1" fill-rule="nonzero"/><g clip-path="url(#888cc698fb)"><path fill="#364e5a" d="M 5.644531 13.410156 C 5.644531 13.546875 5.617188 13.679688 5.5625 13.808594 C 5.511719 13.9375 5.4375 14.046875 5.339844 14.144531 C 5.242188 14.246094 5.128906 14.320312 5.003906 14.371094 C 4.875 14.425781 4.746094 14.453125 4.605469 14.453125 C 4.46875 14.453125 4.335938 14.425781 4.210938 14.371094 C 4.082031 14.320312 3.972656 14.246094 3.875 14.144531 C 3.777344 14.046875 3.703125 13.9375 3.648438 13.808594 C 3.597656 13.679688 3.570312 13.546875 3.570312 13.410156 C 3.570312 13.269531 3.597656 13.136719 3.648438 13.007812 C 3.703125 12.882812 3.777344 12.769531 3.875 12.671875 C 3.972656 12.574219 4.082031 12.496094 4.210938 12.445312 C 4.335938 12.390625 4.46875 12.367188 4.605469 12.367188 C 4.746094 12.367188 4.875 12.390625 5.003906 12.445312 C 5.128906 12.496094 5.242188 12.574219 5.339844 12.671875 C 5.4375 12.769531 5.511719 12.882812 5.5625 13.007812 C 5.617188 13.136719 5.644531 13.269531 5.644531 13.410156 Z M 5.644531 13.410156 " fill-opacity="1" fill-rule="nonzero"/></g><g clip-path="url(#2372d6ad5d)"><path fill="#364e5a" d="M 33.1875 13.410156 C 33.1875 13.546875 33.160156 13.679688 33.109375 13.808594 C 33.054688 13.9375 32.980469 14.046875 32.882812 14.144531 C 32.785156 14.246094 32.675781 14.320312 32.546875 14.371094 C 32.421875 14.425781 32.289062 14.453125 32.152344 14.453125 C 32.015625 14.453125 31.882812 14.425781 31.753906 14.371094 C 31.628906 14.320312 31.515625 14.246094 31.417969 14.144531 C 31.320312 14.046875 31.246094 13.9375 31.195312 13.808594 C 31.140625 13.679688 31.117188 13.546875 31.117188 13.410156 C 31.117188 13.269531 31.140625 13.136719 31.195312 13.007812 C 31.246094 12.882812 31.320312 12.769531 31.417969 12.671875 C 31.515625 12.574219 31.628906 12.496094 31.753906 12.445312 C 31.882812 12.390625 32.015625 12.367188 32.152344 12.367188 C 32.289062 12.367188 32.421875 12.390625 32.546875 12.445312 C 32.675781 12.496094 32.785156 12.574219 32.882812 12.671875 C 32.980469 12.769531 33.054688 12.882812 33.109375 13.007812 C 33.160156 13.136719 33.1875 13.269531 33.1875 13.410156 Z M 33.1875 13.410156 " fill-opacity="1" fill-rule="nonzero"/></g><path fill="#d03539" d="M 10.40625 11.042969 C 10.332031 11.042969 10.257812 11.027344 10.1875 10.992188 C 9.148438 10.503906 7.898438 10.476562 6.835938 10.914062 C 6.574219 11.027344 6.265625 10.898438 6.15625 10.625 C 6.046875 10.355469 6.171875 10.050781 6.441406 9.941406 C 7.769531 9.390625 9.328125 9.425781 10.628906 10.039062 C 11.132812 10.273438 10.964844 11.042969 10.40625 11.042969 Z M 10.40625 11.042969 " fill-opacity="1" fill-rule="nonzero"/><path fill="#c9c8db" d="M 20.128906 10.554688 C 19.089844 10.066406 17.84375 10.035156 16.777344 10.476562 C 16.511719 10.585938 16.207031 10.457031 16.097656 10.1875 C 15.988281 9.917969 16.113281 9.609375 16.382812 9.5 C 17.71875 8.949219 19.273438 8.988281 20.570312 9.597656 C 20.832031 9.722656 20.945312 10.035156 20.824219 10.300781 C 20.699219 10.566406 20.386719 10.675781 20.128906 10.554688 Z M 20.128906 10.554688 " fill-opacity="1" fill-rule="nonzero"/><g clip-path="url(#2366855581)"><path fill="#451326" d="M 12.738281 19.925781 C 12.726562 19.914062 12.722656 19.898438 12.734375 19.886719 C 12.769531 19.84375 12.421875 19.589844 18.117188 24.628906 C 16.378906 21.519531 16.414062 21.664062 16.460938 21.632812 C 16.472656 21.628906 16.488281 21.632812 16.496094 21.644531 C 18.332031 24.917969 18.269531 24.75 18.234375 24.777344 C 18.195312 24.808594 18.355469 24.894531 12.738281 19.925781 Z M 12.738281 19.925781 " fill-opacity="1" fill-rule="nonzero"/></g><path fill="#451326" d="M 18.199219 24.777344 C 14.546875 20.800781 14.703125 21.03125 14.742188 20.992188 C 14.753906 20.980469 14.769531 20.980469 14.78125 20.992188 C 18.433594 24.96875 18.277344 24.738281 18.238281 24.777344 C 18.230469 24.78125 18.207031 24.785156 18.199219 24.777344 Z M 18.199219 24.777344 " fill-opacity="1" fill-rule="nonzero"/><path fill="#451326" d="M 19.042969 24.78125 C 19.011719 24.761719 18.96875 25.023438 20.160156 20.574219 C 20.171875 20.539062 20.222656 20.554688 20.210938 20.589844 L 19.109375 24.675781 C 24.261719 19.855469 23.949219 20.097656 23.984375 20.136719 C 23.996094 20.148438 23.996094 20.164062 23.984375 20.175781 C 18.875 24.964844 19.074219 24.800781 19.042969 24.78125 Z M 19.042969 24.78125 " fill-opacity="1" fill-rule="nonzero"/><path fill="#451326" d="M 19.042969 24.78125 C 19 24.753906 18.871094 25.023438 21.957031 20.148438 C 21.976562 20.117188 22.019531 20.148438 22 20.179688 C 18.96875 24.941406 19.082031 24.804688 19.042969 24.78125 Z M 19.042969 24.78125 " fill-opacity="1" fill-rule="nonzero"/><g clip-path="url(#90da0ea790)"><path fill="#00ffa4" d="M 24.007812 20.203125 C 23.984375 20.207031 20.164062 20.585938 20.121094 20.589844 C 20.164062 20.347656 20.203125 20.105469 20.222656 19.859375 C 20.316406 18.773438 19.878906 18.066406 18.816406 17.925781 C 19.46875 17.382812 20.132812 17.042969 20.609375 16.898438 C 20.96875 16.785156 21.367188 16.75 21.722656 16.84375 C 22.25 16.96875 22.546875 17.261719 22.917969 17.566406 C 23.5625 18.265625 23.84375 19.253906 24.007812 20.203125 Z M 24.007812 20.203125 " fill-opacity="1" fill-rule="nonzero"/></g><path fill="#03e08b" d="M 19.910156 18.144531 C 19.890625 18.226562 19.851562 18.304688 19.828125 18.386719 C 19.554688 18.09375 19.175781 17.972656 18.816406 17.925781 C 18.890625 17.859375 18.96875 17.796875 19.050781 17.738281 C 19.363281 17.789062 19.667969 17.929688 19.910156 18.144531 Z M 19.910156 18.144531 " fill-opacity="1" fill-rule="nonzero"/><path fill="#03e08b" d="M 21.808594 17.0625 C 21.640625 16.957031 21.464844 16.867188 21.285156 16.792969 C 21.382812 16.785156 21.5625 16.800781 21.722656 16.84375 C 21.78125 16.90625 21.808594 16.984375 21.808594 17.0625 Z M 21.808594 17.0625 " fill-opacity="1" fill-rule="nonzero"/><path fill="#04bf73" d="M 23.363281 19.253906 C 23.070312 19.40625 22.8125 19.714844 22.796875 20.050781 C 22.488281 20.054688 21.546875 20.09375 21.042969 20.109375 C 21.019531 19.796875 20.816406 19.519531 20.523438 19.425781 C 20.488281 18.601562 19.882812 17.871094 19.050781 17.738281 C 19.597656 17.320312 20.195312 17.023438 20.609375 16.898438 C 20.832031 16.828125 21.054688 16.789062 21.285156 16.792969 C 22.351562 17.230469 23.097656 18.160156 23.363281 19.253906 Z M 23.363281 19.253906 " fill-opacity="1" fill-rule="nonzero"/><path fill="#049e5c" d="M 19.910156 18.144531 C 19.667969 17.929688 19.363281 17.789062 19.050781 17.738281 C 19.179688 17.640625 19.3125 17.546875 19.453125 17.457031 C 19.558594 17.71875 20.015625 17.730469 19.910156 18.144531 Z M 19.910156 18.144531 " fill-opacity="1" fill-rule="nonzero"/><path fill="#049e5c" d="M 22.445312 20.042969 C 22.445312 20.050781 22.445312 20.054688 22.449219 20.0625 C 22.15625 20.070312 21.859375 20.082031 21.5625 20.089844 C 21.605469 19.9375 21.710938 19.792969 21.679688 19.636719 C 21.628906 19.382812 21.265625 19.316406 21.191406 19.070312 C 21.140625 18.902344 21.246094 18.726562 21.277344 18.558594 C 21.359375 18.136719 20.890625 18.15625 20.796875 17.871094 C 20.726562 17.648438 20.960938 17.410156 20.894531 17.183594 C 20.851562 17.054688 20.726562 16.980469 20.609375 16.898438 C 20.832031 16.828125 21.054688 16.789062 21.285156 16.792969 C 21.464844 16.867188 21.640625 16.957031 21.808594 17.0625 C 21.804688 17.257812 21.636719 17.460938 21.699219 17.652344 C 21.769531 17.871094 22.089844 17.914062 22.171875 18.132812 C 22.253906 18.363281 22.023438 18.613281 22.089844 18.847656 C 22.164062 19.097656 22.527344 19.164062 22.578125 19.417969 C 22.625 19.628906 22.410156 19.828125 22.445312 20.042969 Z M 22.445312 20.042969 " fill-opacity="1" fill-rule="nonzero"/><g clip-path="url(#a7b1cf5de9)"><path fill="#00ffa4" d="M 12.847656 20.09375 C 12.734375 20.039062 12.679688 19.90625 12.722656 19.789062 C 13.335938 18.101562 14.917969 16.683594 16.535156 16.039062 C 17.269531 15.726562 18.285156 15.730469 19.070312 15.84375 C 20.152344 16 21.21875 16.402344 22.160156 17 C 21.910156 16.878906 21.640625 16.800781 21.355469 16.792969 C 20.449219 16.753906 19.25 17.492188 18.605469 18.109375 C 17.570312 19.050781 16.886719 20.296875 16.609375 21.566406 C 16.574219 21.71875 16.414062 21.804688 16.273438 21.738281 C 15.660156 21.441406 12.808594 20.074219 12.847656 20.09375 Z M 12.847656 20.09375 " fill-opacity="1" fill-rule="nonzero"/></g><g clip-path="url(#cb9b19461f)"><path fill="#03e08b" d="M 17.820312 15.78125 C 18.160156 15.765625 18.46875 15.773438 18.824219 15.8125 C 18.515625 15.792969 18.203125 15.808594 17.898438 15.851562 C 17.875 15.828125 17.851562 15.804688 17.820312 15.78125 Z M 17.820312 15.78125 " fill-opacity="1" fill-rule="nonzero"/></g><g clip-path="url(#c0016c4c5a)"><path fill="#04bf73" d="M 13.585938 18.71875 C 14.636719 17.277344 16.320312 16.085938 17.898438 15.851562 C 18.789062 15.722656 19.8125 15.828125 21.222656 16.488281 C 19.226562 16.628906 17.652344 18.054688 16.761719 19.878906 C 16.761719 19.878906 16.761719 19.878906 16.761719 19.882812 C 16.648438 20.113281 16.59375 20.257812 16.59375 20.257812 C 15.835938 20.058594 15.457031 20.699219 15.457031 20.699219 C 15.433594 20.6875 13.753906 19.839844 13.863281 19.894531 C 14.152344 19.074219 13.585938 18.71875 13.585938 18.71875 Z M 13.585938 18.71875 " fill-opacity="1" fill-rule="nonzero"/></g><g clip-path="url(#4ecdb0baae)"><path fill="#049e5c" d="M 17.898438 15.851562 C 18.203125 15.808594 18.515625 15.792969 18.824219 15.8125 C 18.832031 15.8125 18.835938 15.8125 18.84375 15.8125 C 18.917969 15.824219 18.996094 15.832031 19.070312 15.84375 C 19.042969 16.03125 18.984375 16.226562 19.058594 16.390625 C 19.171875 16.632812 19.511719 16.6875 19.6875 16.875 C 19.316406 17.035156 18.988281 17.238281 18.6875 17.464844 C 18.597656 17.148438 18.109375 17.128906 17.972656 16.832031 C 17.832031 16.527344 18.140625 16.125 17.898438 15.851562 Z M 17.898438 15.851562 " fill-opacity="1" fill-rule="nonzero"/></g><path fill="#049e5c" d="M 16.523438 16.28125 C 16.488281 16.464844 16.425781 16.652344 16.503906 16.8125 C 16.632812 17.078125 17.039062 17.074219 17.179688 17.332031 C 17.324219 17.601562 17.074219 17.960938 17.203125 18.242188 C 17.273438 18.398438 17.4375 18.476562 17.589844 18.558594 C 17.1875 19.070312 16.917969 19.554688 16.761719 19.878906 C 16.792969 19.683594 16.890625 19.484375 16.828125 19.304688 C 16.714844 18.996094 16.25 18.976562 16.117188 18.683594 C 15.984375 18.402344 16.238281 18.042969 16.089844 17.769531 C 15.902344 17.4375 15.285156 17.546875 15.390625 16.941406 C 15.777344 16.664062 16.164062 16.449219 16.523438 16.28125 Z M 16.523438 16.28125 " fill-opacity="1" fill-rule="nonzero"/><path fill="#049e5c" d="M 13.585938 18.71875 C 13.761719 18.476562 13.949219 18.253906 14.136719 18.046875 C 14.148438 18.054688 14.15625 18.070312 14.164062 18.085938 C 14.3125 18.355469 14.0625 18.71875 14.1875 19 C 14.324219 19.292969 14.792969 19.3125 14.902344 19.617188 C 14.988281 19.863281 14.789062 20.132812 14.832031 20.382812 L 13.863281 19.894531 C 14.152344 19.074219 13.585938 18.71875 13.585938 18.71875 Z M 13.585938 18.71875 " fill-opacity="1" fill-rule="nonzero"/><path fill="#03e08b" d="M 18.6875 17.464844 C 18.988281 17.238281 19.316406 17.035156 19.6875 16.875 C 19.792969 16.988281 19.808594 17.109375 19.78125 17.265625 C 19.332031 17.507812 18.878906 17.847656 18.605469 18.109375 C 18.617188 17.894531 18.75 17.671875 18.6875 17.464844 Z M 18.6875 17.464844 " fill-opacity="1" fill-rule="nonzero"/><path fill="#03e08b" d="M 16.761719 19.878906 C 16.917969 19.554688 17.1875 19.070312 17.589844 18.558594 C 17.726562 18.632812 17.855469 18.714844 17.910156 18.851562 C 17.535156 19.316406 17.226562 19.832031 16.988281 20.382812 C 16.792969 20.25 16.722656 20.109375 16.761719 19.878906 Z M 16.761719 19.878906 " fill-opacity="1" fill-rule="nonzero"/><path fill="#03e08b" d="M 15.449219 16.59375 C 15.800781 16.371094 16.167969 16.1875 16.535156 16.039062 C 16.546875 16.117188 16.535156 16.199219 16.523438 16.28125 C 16.164062 16.449219 15.777344 16.664062 15.390625 16.941406 C 15.40625 16.824219 15.445312 16.707031 15.449219 16.59375 Z M 15.449219 16.59375 " fill-opacity="1" fill-rule="nonzero"/><path fill="#03e08b" d="M 13.09375 18.984375 C 13.320312 18.59375 13.59375 18.21875 13.910156 17.875 C 14 17.917969 14.082031 17.96875 14.136719 18.046875 C 13.949219 18.253906 13.761719 18.476562 13.585938 18.71875 C 13.585938 18.71875 14.152344 19.074219 13.863281 19.894531 L 14.832031 20.382812 C 14.898438 20.867188 15.714844 20.738281 15.625 21.425781 L 13.765625 20.535156 C 13.808594 20.371094 13.867188 20.210938 13.8125 20.058594 C 13.703125 19.753906 13.234375 19.734375 13.101562 19.4375 C 13.039062 19.300781 13.066406 19.140625 13.09375 18.984375 Z M 13.09375 18.984375 " fill-opacity="1" fill-rule="nonzero"/><path fill="#049e5c" d="M 17.796875 17.40625 L 17.832031 17.371094 C 17.855469 17.34375 17.894531 17.382812 17.871094 17.410156 L 17.835938 17.445312 C 17.8125 17.472656 17.773438 17.433594 17.796875 17.40625 Z M 17.796875 17.40625 " fill-opacity="1" fill-rule="nonzero"/><path fill="#049e5c" d="M 17.488281 17.757812 L 17.476562 17.742188 C 17.457031 17.714844 17.5 17.683594 17.519531 17.710938 L 17.53125 17.726562 C 17.539062 17.742188 17.535156 17.757812 17.523438 17.765625 C 17.511719 17.773438 17.496094 17.773438 17.488281 17.757812 Z M 17.488281 17.757812 " fill-opacity="1" fill-rule="nonzero"/><path fill="#049e5c" d="M 17.359375 17.082031 L 17.335938 17.0625 C 17.308594 17.042969 17.339844 17 17.367188 17.019531 L 17.390625 17.039062 C 17.40625 17.046875 17.40625 17.0625 17.398438 17.078125 C 17.390625 17.089844 17.375 17.09375 17.359375 17.082031 Z M 17.359375 17.082031 " fill-opacity="1" fill-rule="nonzero"/><path fill="#049e5c" d="M 19.714844 16.367188 C 19.714844 16.367188 19.710938 16.367188 19.710938 16.367188 L 19.703125 16.363281 C 19.691406 16.363281 19.679688 16.351562 19.679688 16.335938 C 19.679688 16.335938 19.679688 16.335938 19.679688 16.332031 C 19.683594 16.316406 19.699219 16.308594 19.710938 16.3125 L 19.722656 16.3125 C 19.734375 16.316406 19.742188 16.328125 19.742188 16.339844 C 19.742188 16.339844 19.742188 16.34375 19.742188 16.34375 C 19.738281 16.359375 19.726562 16.367188 19.714844 16.367188 Z M 19.714844 16.367188 " fill-opacity="1" fill-rule="nonzero"/><path fill="#049e5c" d="M 15.855469 18.433594 L 15.886719 18.425781 C 15.921875 18.417969 15.933594 18.46875 15.902344 18.476562 L 15.871094 18.488281 C 15.835938 18.496094 15.824219 18.445312 15.855469 18.433594 Z M 15.855469 18.433594 " fill-opacity="1" fill-rule="nonzero"/><path fill="#049e5c" d="M 15.425781 18.667969 L 15.417969 18.636719 C 15.410156 18.601562 15.460938 18.589844 15.46875 18.621094 L 15.480469 18.652344 C 15.484375 18.667969 15.476562 18.683594 15.460938 18.6875 C 15.445312 18.691406 15.429688 18.679688 15.425781 18.667969 Z M 15.425781 18.667969 " fill-opacity="1" fill-rule="nonzero"/><path fill="#049e5c" d="M 15.210938 17.773438 L 15.191406 17.742188 C 15.167969 17.710938 15.214844 17.679688 15.234375 17.710938 L 15.257812 17.742188 C 15.265625 17.753906 15.261719 17.773438 15.25 17.78125 C 15.238281 17.789062 15.21875 17.785156 15.210938 17.773438 Z M 15.210938 17.773438 " fill-opacity="1" fill-rule="nonzero"/><path fill="#049e5c" d="M 15.214844 19.972656 L 15.191406 19.953125 C 15.160156 19.933594 15.195312 19.886719 15.222656 19.910156 L 15.246094 19.929688 C 15.257812 19.9375 15.261719 19.957031 15.253906 19.96875 C 15.242188 19.980469 15.226562 19.980469 15.214844 19.972656 Z M 15.214844 19.972656 " fill-opacity="1" fill-rule="nonzero"/><path fill="#000000" d="M 22.511719 17.230469 C 21.296875 16.953125 19.96875 17.222656 18.945312 17.945312 C 18.902344 17.9375 18.859375 17.929688 18.816406 17.925781 C 19.46875 17.382812 20.460938 16.785156 21.285156 16.792969 C 21.492188 16.777344 21.84375 16.839844 22.175781 17.011719 C 22.347656 17.121094 22.4375 17.179688 22.511719 17.230469 Z M 22.511719 17.230469 " fill-opacity="0.29" fill-rule="nonzero"/><path fill="#068249" d="M 21.78125 18.007812 C 21.808594 18.109375 21.777344 18.214844 21.6875 18.320312 C 21.597656 18.425781 21.476562 18.5 21.316406 18.546875 C 21.160156 18.59375 21.019531 18.597656 20.886719 18.554688 C 20.757812 18.515625 20.675781 18.445312 20.648438 18.339844 C 20.617188 18.238281 20.648438 18.132812 20.738281 18.03125 C 20.832031 17.925781 20.953125 17.847656 21.109375 17.800781 C 21.265625 17.757812 21.410156 17.753906 21.542969 17.792969 C 21.671875 17.832031 21.753906 17.90625 21.78125 18.007812 Z M 21.78125 18.007812 " fill-opacity="1" fill-rule="nonzero"/><path fill="#068249" d="M 16.425781 17.742188 C 16.578125 17.804688 16.691406 17.894531 16.773438 18.007812 C 16.851562 18.125 16.871094 18.230469 16.832031 18.328125 C 16.792969 18.429688 16.707031 18.492188 16.570312 18.515625 C 16.4375 18.542969 16.292969 18.523438 16.144531 18.460938 C 15.992188 18.398438 15.878906 18.308594 15.796875 18.195312 C 15.71875 18.082031 15.699219 17.972656 15.738281 17.875 C 15.777344 17.777344 15.863281 17.714844 16 17.6875 C 16.132812 17.664062 16.277344 17.679688 16.425781 17.742188 Z M 16.425781 17.742188 " fill-opacity="1" fill-rule="nonzero"/><g clip-path="url(#af04813b0f)"><path fill="#068249" d="M 19.085938 15.957031 C 19.324219 16.054688 19.511719 16.175781 19.648438 16.324219 C 19.785156 16.46875 19.835938 16.59375 19.792969 16.699219 C 19.75 16.808594 19.628906 16.863281 19.433594 16.871094 C 19.234375 16.875 19.019531 16.828125 18.78125 16.730469 C 18.542969 16.628906 18.355469 16.507812 18.21875 16.363281 C 18.078125 16.21875 18.03125 16.09375 18.074219 15.984375 C 18.117188 15.878906 18.234375 15.824219 18.433594 15.816406 C 18.632812 15.8125 18.847656 15.859375 19.085938 15.957031 Z M 19.085938 15.957031 " fill-opacity="1" fill-rule="nonzero"/></g><path fill="#068249" d="M 21.21875 16.488281 C 19.207031 16.632812 17.648438 18.066406 16.761719 19.878906 C 16.761719 19.878906 16.761719 19.878906 16.761719 19.882812 C 16.648438 20.113281 16.59375 20.257812 16.59375 20.257812 C 15.832031 20.058594 15.457031 20.699219 15.457031 20.699219 C 15.433594 20.6875 13.753906 19.839844 13.863281 19.894531 C 13.914062 19.753906 13.9375 19.625 13.941406 19.515625 C 13.964844 19.527344 15.496094 20.296875 15.402344 20.25 C 15.402344 20.25 15.78125 19.609375 16.539062 19.808594 C 16.539062 19.808594 16.59375 19.664062 16.707031 19.433594 C 16.707031 19.433594 16.707031 19.433594 16.707031 19.429688 C 16.863281 19.105469 17.136719 18.621094 17.539062 18.109375 C 18.289062 17.148438 19.246094 16.445312 20.410156 16.15625 C 20.6875 16.253906 20.960938 16.363281 21.21875 16.488281 Z M 21.21875 16.488281 " fill-opacity="0.5" fill-rule="nonzero"/><g clip-path="url(#36110b0b51)"><path fill="#ffffff" d="M 13.828125 19.90625 C 13.910156 19.667969 13.921875 19.398438 13.859375 19.152344 C 13.828125 19.03125 13.753906 18.824219 13.578125 18.75 C 13.5625 18.742188 13.554688 18.722656 13.566406 18.707031 C 14.597656 17.226562 16.226562 16.160156 18.027344 15.785156 C 18.058594 15.777344 18.074219 15.832031 18.039062 15.839844 C 16.261719 16.210938 14.65625 17.257812 13.628906 18.710938 C 13.804688 18.804688 13.878906 19.015625 13.910156 19.136719 C 13.976562 19.394531 13.964844 19.675781 13.878906 19.925781 C 13.867188 19.960938 13.816406 19.941406 13.828125 19.90625 Z M 13.828125 19.90625 " fill-opacity="1" fill-rule="nonzero"/></g><path fill="#03e08b" d="M 20.140625 18.929688 C 20.378906 19.097656 20.3125 19.273438 20.234375 19.523438 C 20.238281 19.398438 20.210938 19.140625 20.140625 18.929688 Z M 20.140625 18.929688 " fill-opacity="1" fill-rule="nonzero"/><path fill="#03e08b" d="M 20.695312 20.53125 C 20.503906 20.550781 20.3125 20.570312 20.121094 20.589844 C 20.164062 20.347656 20.203125 20.105469 20.222656 19.859375 C 20.339844 20.113281 20.773438 20.171875 20.695312 20.53125 Z M 20.695312 20.53125 " fill-opacity="1" fill-rule="nonzero"/><path fill="#03e08b" d="M 22.65625 20.335938 C 22.3125 20.371094 21.972656 20.40625 21.628906 20.441406 C 21.535156 20.332031 21.523438 20.222656 21.5625 20.089844 C 21.859375 20.082031 22.15625 20.070312 22.449219 20.0625 C 22.472656 20.179688 22.558594 20.257812 22.65625 20.335938 Z M 22.65625 20.335938 " fill-opacity="1" fill-rule="nonzero"/><g clip-path="url(#2b3054aea9)"><path fill="#03e08b" d="M 24.007812 20.203125 C 23.972656 20.207031 23.941406 20.207031 23.90625 20.210938 C 23.769531 20.105469 23.613281 20.007812 23.585938 19.839844 C 23.554688 19.621094 23.765625 19.421875 23.722656 19.210938 C 23.667969 18.957031 23.304688 18.890625 23.230469 18.644531 C 23.179688 18.472656 23.292969 18.289062 23.324219 18.113281 C 23.6875 18.730469 23.886719 19.5 24.007812 20.203125 Z M 24.007812 20.203125 " fill-opacity="1" fill-rule="nonzero"/></g><path fill="#049e5c" d="M 20.058594 17.816406 L 20.070312 17.804688 C 20.09375 17.78125 20.132812 17.820312 20.105469 17.84375 L 20.097656 17.855469 C 20.070312 17.878906 20.035156 17.839844 20.058594 17.816406 Z M 20.058594 17.816406 " fill-opacity="1" fill-rule="nonzero"/><path fill="#049e5c" d="M 20.457031 17.523438 L 20.429688 17.519531 L 20.429688 17.511719 C 20.433594 17.496094 20.445312 17.484375 20.460938 17.484375 C 20.472656 17.484375 20.484375 17.5 20.484375 17.515625 L 20.457031 17.511719 L 20.484375 17.519531 Z M 20.457031 17.523438 " fill-opacity="1" fill-rule="nonzero"/><path fill="#049e5c" d="M 20.425781 18 L 20.417969 17.988281 C 20.394531 17.964844 20.429688 17.925781 20.457031 17.953125 L 20.464844 17.960938 C 20.476562 17.972656 20.476562 17.992188 20.464844 18 C 20.453125 18.011719 20.4375 18.011719 20.425781 18 Z M 20.425781 18 " fill-opacity="1" fill-rule="nonzero"/><path fill="#049e5c" d="M 21.179688 19.570312 C 21.175781 19.570312 21.171875 19.570312 21.167969 19.570312 C 21.132812 19.570312 21.136719 19.515625 21.171875 19.515625 L 21.179688 19.515625 C 21.195312 19.515625 21.207031 19.53125 21.207031 19.542969 C 21.207031 19.558594 21.195312 19.570312 21.179688 19.570312 Z M 21.179688 19.570312 " fill-opacity="1" fill-rule="nonzero"/><path fill="#049e5c" d="M 21.996094 19.519531 L 21.964844 19.5 C 21.9375 19.480469 21.964844 19.433594 21.996094 19.453125 L 22.023438 19.476562 C 22.035156 19.484375 22.039062 19.5 22.03125 19.511719 C 22.023438 19.523438 22.007812 19.527344 21.996094 19.519531 Z M 21.996094 19.519531 " fill-opacity="1" fill-rule="nonzero"/><path fill="#049e5c" d="M 22.402344 18.617188 C 22.398438 18.617188 22.394531 18.617188 22.390625 18.617188 C 22.359375 18.613281 22.359375 18.5625 22.394531 18.5625 L 22.402344 18.5625 C 22.417969 18.5625 22.429688 18.574219 22.429688 18.589844 C 22.429688 18.605469 22.417969 18.617188 22.402344 18.617188 Z M 22.402344 18.617188 " fill-opacity="1" fill-rule="nonzero"/><path fill="#049e5c" d="M 22.789062 19.132812 L 22.769531 19.121094 C 22.738281 19.105469 22.761719 19.054688 22.792969 19.074219 L 22.8125 19.082031 C 22.824219 19.089844 22.832031 19.105469 22.824219 19.121094 C 22.816406 19.132812 22.800781 19.136719 22.789062 19.132812 Z M 22.789062 19.132812 " fill-opacity="1" fill-rule="nonzero"/><path fill="#ff9f00" d="M 15.75 28.507812 C 16.210938 29.257812 17 29.722656 17.84375 29.777344 L 18.703125 29.835938 L 19.046875 24.320312 C 18.367188 24.300781 17.726562 24.121094 16.933594 24.492188 C 15.398438 25.179688 14.867188 27.128906 15.75 28.507812 Z M 15.75 28.507812 " fill-opacity="1" fill-rule="nonzero"/><path fill="#ea8318" d="M 18.03125 24.417969 L 17.273438 24.367188 C 17.15625 24.398438 17.042969 24.441406 16.933594 24.492188 L 19.707031 24.675781 L 19.714844 24.527344 Z M 18.03125 24.417969 " fill-opacity="0.5" fill-rule="nonzero"/><path fill="#ea8318" d="M 16.226562 24.957031 L 19.675781 25.183594 L 19.683594 25.035156 L 16.390625 24.820312 C 16.335938 24.863281 16.28125 24.910156 16.226562 24.957031 Z M 16.226562 24.957031 " fill-opacity="0.5" fill-rule="nonzero"/><path fill="#ea8318" d="M 15.808594 25.441406 L 19.644531 25.695312 L 19.652344 25.546875 L 15.910156 25.300781 C 15.875 25.347656 15.839844 25.394531 15.808594 25.441406 Z M 15.808594 25.441406 " fill-opacity="0.5" fill-rule="nonzero"/><path fill="#ea8318" d="M 15.539062 25.9375 L 19.613281 26.203125 L 19.621094 26.054688 L 15.605469 25.792969 C 15.582031 25.839844 15.5625 25.886719 15.539062 25.9375 Z M 15.539062 25.9375 " fill-opacity="0.5" fill-rule="nonzero"/><path fill="#ea8318" d="M 15.386719 26.4375 L 19.582031 26.710938 L 19.589844 26.5625 L 15.421875 26.289062 C 15.40625 26.339844 15.394531 26.386719 15.386719 26.4375 Z M 15.386719 26.4375 " fill-opacity="0.5" fill-rule="nonzero"/><path fill="#ea8318" d="M 15.328125 26.945312 L 19.546875 27.222656 L 19.558594 27.074219 L 15.335938 26.796875 C 15.328125 26.832031 15.328125 26.910156 15.328125 26.945312 Z M 15.328125 26.945312 " fill-opacity="0.5" fill-rule="nonzero"/><path fill="#ea8318" d="M 15.339844 27.308594 C 15.34375 27.359375 15.351562 27.410156 15.359375 27.457031 L 19.515625 27.730469 L 19.527344 27.582031 Z M 15.339844 27.308594 " fill-opacity="0.5" fill-rule="nonzero"/><path fill="#ea8318" d="M 15.441406 27.828125 C 15.453125 27.863281 15.46875 27.914062 15.492188 27.980469 L 19.484375 28.242188 L 19.492188 28.09375 Z M 15.441406 27.828125 " fill-opacity="0.5" fill-rule="nonzero"/><path fill="#ea8318" d="M 15.65625 28.351562 C 15.683594 28.402344 15.714844 28.457031 15.75 28.507812 L 19.453125 28.75 L 19.460938 28.601562 Z M 15.65625 28.351562 " fill-opacity="0.5" fill-rule="nonzero"/><path fill="#ea8318" d="M 16.035156 28.886719 C 16.101562 28.96875 16.167969 29.023438 16.1875 29.046875 L 19.421875 29.257812 L 19.429688 29.109375 Z M 16.035156 28.886719 " fill-opacity="0.5" fill-rule="nonzero"/><path fill="#ea8318" d="M 16.726562 29.445312 C 16.855469 29.519531 16.96875 29.570312 17.101562 29.617188 L 19.390625 29.769531 L 19.398438 29.621094 Z M 16.726562 29.445312 " fill-opacity="0.5" fill-rule="nonzero"/><path fill="#ff9f00" d="M 19.039062 24.464844 L 18.710938 29.691406 C 19.789062 29.394531 20.621094 28.421875 20.703125 27.210938 L 20.703125 27.199219 C 20.78125 25.941406 20.011719 24.851562 19.039062 24.464844 Z M 19.039062 24.464844 " fill-opacity="1" fill-rule="nonzero"/><path fill="#f9e662" d="M 19.390625 29.789062 C 20.988281 29.46875 21.957031 27.765625 21.417969 26.171875 C 20.691406 24.019531 17.871094 23.648438 16.636719 25.542969 C 15.308594 27.582031 17.0625 30.28125 19.390625 29.789062 Z M 19.390625 29.789062 " fill-opacity="1" fill-rule="nonzero"/><path fill="#ffc700" d="M 18.753906 29.03125 C 20.417969 29.140625 21.394531 27.160156 20.355469 25.84375 C 19.46875 24.722656 17.710938 24.933594 17.128906 26.285156 C 16.59375 27.523438 17.425781 28.945312 18.753906 29.03125 Z M 18.753906 29.03125 " fill-opacity="1" fill-rule="nonzero"/><path fill="#ff9f00" d="M 17.128906 26.285156 C 17.265625 26.300781 17.410156 26.355469 17.53125 26.296875 C 17.734375 26.199219 17.730469 25.871094 17.925781 25.757812 C 18.128906 25.640625 18.417969 25.832031 18.609375 25.695312 C 18.804688 25.558594 18.742188 25.183594 19.023438 25.125 C 19.015625 25.125 19.003906 25.125 18.996094 25.125 C 18.175781 25.070312 17.441406 25.558594 17.128906 26.285156 Z M 17.128906 26.285156 " fill-opacity="0.5" fill-rule="nonzero"/><path fill="#ff9f00" d="M 17.089844 27.773438 C 17.195312 28.054688 17.359375 28.304688 17.574219 28.511719 C 17.765625 28.425781 17.757812 28.082031 17.949219 27.976562 C 18.132812 27.875 18.378906 28.050781 18.566406 27.960938 C 18.769531 27.859375 18.765625 27.535156 18.960938 27.421875 C 19.164062 27.300781 19.453125 27.496094 19.644531 27.359375 C 19.808594 27.242188 19.789062 26.96875 19.945312 26.84375 C 20.171875 26.660156 20.519531 26.9375 20.746094 26.707031 C 20.6875 26.386719 20.550781 26.089844 20.355469 25.84375 C 20.304688 25.941406 20.246094 26.015625 20.144531 26.046875 C 19.933594 26.113281 19.652344 25.960938 19.472656 26.105469 C 19.316406 26.226562 19.335938 26.503906 19.171875 26.621094 C 18.980469 26.753906 18.691406 26.5625 18.488281 26.683594 C 18.292969 26.796875 18.296875 27.121094 18.09375 27.21875 C 17.90625 27.3125 17.660156 27.136719 17.476562 27.238281 C 17.285156 27.34375 17.289062 27.703125 17.089844 27.773438 Z M 17.089844 27.773438 " fill-opacity="0.5" fill-rule="nonzero"/><path fill="#ff9f00" d="M 18.9375 29.035156 C 19.671875 29.011719 20.3125 28.558594 20.605469 27.898438 C 20.464844 27.878906 20.4375 27.890625 20.417969 27.890625 C 20.089844 27.929688 20.167969 28.324219 19.964844 28.46875 C 19.773438 28.601562 19.484375 28.410156 19.28125 28.53125 C 19.105469 28.632812 19.089844 28.914062 18.9375 29.035156 Z M 18.9375 29.035156 " fill-opacity="0.5" fill-rule="nonzero"/><path fill="#ea8318" d="M 20.527344 27.351562 C 20.488281 27.980469 20.167969 28.519531 19.695312 28.847656 C 20.296875 28.550781 20.730469 27.9375 20.777344 27.203125 C 20.878906 25.5625 19.085938 24.550781 17.796875 25.464844 C 19.09375 24.816406 20.621094 25.847656 20.527344 27.351562 Z M 20.527344 27.351562 " fill-opacity="0.5" fill-rule="nonzero"/><path fill="#ffc700" d="M 16.191406 26.851562 C 16.316406 26.871094 16.445312 26.902344 16.550781 26.839844 C 16.792969 26.699219 16.695312 26.226562 17.128906 26.285156 C 17.476562 25.480469 18.296875 25.042969 19.027344 25.128906 C 19.222656 25.085938 19.472656 25.203125 19.648438 25.09375 C 19.828125 24.984375 19.84375 24.699219 19.996094 24.566406 C 19.75 24.449219 19.484375 24.371094 19.199219 24.335938 C 19.019531 24.5 18.640625 24.277344 18.4375 24.441406 C 18.277344 24.5625 18.300781 24.839844 18.136719 24.957031 C 17.945312 25.089844 17.65625 24.898438 17.453125 25.019531 C 17.257812 25.132812 17.261719 25.457031 17.058594 25.554688 C 16.929688 25.617188 16.777344 25.558594 16.636719 25.542969 C 16.390625 25.921875 16.230469 26.367188 16.191406 26.851562 Z M 16.191406 26.851562 " fill-opacity="0.5" fill-rule="nonzero"/><path fill="#ffc700" d="M 16.328125 27.96875 C 16.425781 28.265625 16.570312 28.539062 16.757812 28.78125 C 16.8125 28.683594 16.867188 28.578125 16.964844 28.53125 C 17.148438 28.4375 17.390625 28.601562 17.574219 28.511719 C 17.359375 28.304688 17.195312 28.054688 17.089844 27.773438 C 16.910156 27.855469 16.671875 27.699219 16.492188 27.792969 C 16.417969 27.828125 16.371094 27.894531 16.328125 27.96875 Z M 16.328125 27.96875 " fill-opacity="0.5" fill-rule="nonzero"/><path fill="#ffc700" d="M 20.355469 25.84375 C 20.550781 26.089844 20.6875 26.386719 20.746094 26.707031 C 20.886719 26.5625 20.90625 26.289062 21.085938 26.191406 C 21.1875 26.140625 21.304688 26.15625 21.417969 26.171875 C 21.332031 25.910156 21.203125 25.667969 21.046875 25.445312 C 20.898438 25.433594 20.742188 25.382812 20.613281 25.453125 C 20.476562 25.527344 20.429688 25.699219 20.355469 25.84375 Z M 20.355469 25.84375 " fill-opacity="0.5" fill-rule="nonzero"/><path fill="#ffc700" d="M 17.855469 29.632812 C 18.300781 29.824219 18.703125 29.832031 18.726562 29.835938 C 18.820312 29.75 19.03125 29.8125 19.136719 29.828125 C 19.222656 29.820312 19.308594 29.808594 19.390625 29.789062 C 19.5625 29.675781 19.570312 29.378906 19.753906 29.269531 C 19.957031 29.152344 20.246094 29.34375 20.4375 29.207031 C 20.601562 29.09375 20.582031 28.816406 20.738281 28.691406 C 20.835938 28.613281 20.964844 28.625 21.097656 28.636719 C 21.359375 28.246094 21.527344 27.777344 21.558594 27.265625 C 21.191406 27.265625 21.246094 27.71875 21.003906 27.867188 C 20.890625 27.9375 20.746094 27.910156 20.605469 27.898438 C 20.3125 28.558594 19.671875 29.011719 18.9375 29.035156 C 18.746094 29.195312 18.46875 28.976562 18.269531 29.085938 C 18.066406 29.199219 18.089844 29.574219 17.855469 29.632812 Z M 17.855469 29.632812 " fill-opacity="0.5" fill-rule="nonzero"/><path fill="#ffffff" d="M 17.554688 28.53125 C 17.527344 28.503906 17.566406 28.464844 17.589844 28.488281 C 18.53125 29.390625 20.050781 29.070312 20.582031 27.886719 C 21.128906 26.667969 20.324219 25.242188 19 25.152344 L 18.996094 25.125 L 19 25.097656 C 20.417969 25.214844 21.179688 26.695312 20.632812 27.910156 C 20.085938 29.125 18.523438 29.457031 17.554688 28.53125 Z M 17.554688 28.53125 " fill-opacity="1" fill-rule="nonzero"/><path fill="#ffffff" d="M 17.84375 29.660156 C 16.285156 29.007812 15.644531 27.015625 16.613281 25.527344 C 17.398438 24.324219 18.667969 24.289062 18.648438 24.296875 C 18.679688 24.296875 18.683594 24.351562 18.648438 24.351562 C 16.53125 24.535156 15.480469 27.066406 16.777344 28.765625 C 17.0625 29.140625 17.4375 29.429688 17.863281 29.609375 C 17.878906 29.613281 17.882812 29.628906 17.878906 29.644531 C 17.875 29.65625 17.859375 29.664062 17.84375 29.660156 Z M 17.84375 29.660156 " fill-opacity="1" fill-rule="nonzero"/><path fill="#e26c24" d="M 16.320312 25.871094 C 16.113281 25.859375 15.601562 25.824219 15.636719 25.828125 C 15.601562 25.824219 15.601562 25.773438 15.636719 25.773438 L 16.320312 25.816406 C 16.335938 25.816406 16.347656 25.832031 16.347656 25.847656 C 16.347656 25.859375 16.335938 25.871094 16.320312 25.871094 Z M 16.320312 25.871094 " fill-opacity="1" fill-rule="nonzero"/><path fill="#e26c24" d="M 16.136719 26.890625 C 15.886719 26.875 15.367188 26.839844 15.398438 26.84375 C 15.363281 26.839844 15.367188 26.789062 15.402344 26.789062 C 15.648438 26.804688 16.167969 26.835938 16.136719 26.835938 C 16.152344 26.835938 16.164062 26.851562 16.164062 26.863281 C 16.160156 26.878906 16.148438 26.890625 16.136719 26.890625 Z M 16.136719 26.890625 " fill-opacity="1" fill-rule="nonzero"/><path fill="#e26c24" d="M 16.191406 27.898438 L 15.648438 27.863281 C 15.613281 27.863281 15.613281 27.8125 15.648438 27.808594 L 16.195312 27.84375 C 16.230469 27.847656 16.226562 27.898438 16.191406 27.898438 Z M 16.191406 27.898438 " fill-opacity="1" fill-rule="nonzero"/><path fill="#e26c24" d="M 16.332031 28.429688 L 15.859375 28.398438 C 15.828125 28.394531 15.824219 28.34375 15.863281 28.34375 L 16.335938 28.375 C 16.351562 28.375 16.359375 28.390625 16.359375 28.402344 C 16.359375 28.417969 16.347656 28.429688 16.332031 28.429688 Z M 16.332031 28.429688 " fill-opacity="1" fill-rule="nonzero"/><path fill="#e26c24" d="M 16.660156 28.964844 C 16.636719 28.960938 16.140625 28.929688 16.171875 28.933594 C 16.136719 28.929688 16.136719 28.878906 16.175781 28.878906 L 16.660156 28.910156 C 16.675781 28.910156 16.6875 28.921875 16.6875 28.9375 C 16.6875 28.953125 16.675781 28.964844 16.660156 28.964844 Z M 16.660156 28.964844 " fill-opacity="1" fill-rule="nonzero"/><path fill="#e26c24" d="M 17.113281 24.890625 C 17.019531 24.882812 16.523438 24.851562 16.554688 24.851562 C 16.523438 24.851562 16.519531 24.800781 16.558594 24.796875 L 17.117188 24.832031 C 17.128906 24.835938 17.140625 24.847656 17.140625 24.863281 C 17.140625 24.878906 17.128906 24.890625 17.113281 24.890625 Z M 17.113281 24.890625 " fill-opacity="1" fill-rule="nonzero"/><path fill="#e26c24" d="M 17.835938 24.421875 C 17.789062 24.417969 17.4375 24.398438 17.457031 24.398438 C 17.425781 24.394531 17.421875 24.347656 17.460938 24.34375 L 17.839844 24.367188 C 17.851562 24.371094 17.863281 24.382812 17.863281 24.398438 C 17.863281 24.410156 17.851562 24.421875 17.835938 24.421875 Z M 17.835938 24.421875 " fill-opacity="1" fill-rule="nonzero"/><path fill="#e26c24" d="M 17.332031 29.492188 L 16.921875 29.46875 C 16.886719 29.464844 16.886719 29.414062 16.921875 29.410156 L 17.335938 29.4375 C 17.351562 29.441406 17.359375 29.453125 17.359375 29.46875 C 17.359375 29.484375 17.347656 29.492188 17.332031 29.492188 Z M 17.332031 29.492188 " fill-opacity="1" fill-rule="nonzero"/><path fill="#e26c24" d="M 16.632812 25.367188 C 16.566406 25.363281 16.070312 25.332031 16.101562 25.332031 C 16.066406 25.332031 16.066406 25.277344 16.105469 25.277344 L 16.636719 25.3125 C 16.648438 25.316406 16.660156 25.328125 16.660156 25.34375 C 16.660156 25.359375 16.648438 25.367188 16.632812 25.367188 Z M 16.632812 25.367188 " fill-opacity="1" fill-rule="nonzero"/><path fill="#e26c24" d="M 15.960938 27.367188 C 15.925781 27.363281 15.515625 27.335938 15.539062 27.339844 C 15.503906 27.335938 15.507812 27.285156 15.542969 27.285156 L 15.960938 27.3125 C 15.976562 27.3125 15.988281 27.324219 15.988281 27.339844 C 15.984375 27.355469 15.972656 27.367188 15.960938 27.367188 Z M 15.960938 27.367188 " fill-opacity="1" fill-rule="nonzero"/><path fill="#e26c24" d="M 16.148438 26.34375 C 15.941406 26.328125 15.433594 26.296875 15.464844 26.296875 C 15.433594 26.296875 15.433594 26.242188 15.46875 26.242188 L 16.148438 26.289062 C 16.164062 26.289062 16.175781 26.300781 16.171875 26.316406 C 16.171875 26.332031 16.160156 26.34375 16.148438 26.34375 Z M 16.148438 26.34375 " fill-opacity="1" fill-rule="nonzero"/><path fill="#ffffff" d="M 16.363281 27.386719 C 16.355469 27.335938 16.351562 27.28125 16.351562 27.226562 C 16.347656 27.105469 16.441406 27.003906 16.558594 27 C 16.679688 26.988281 16.777344 27.089844 16.78125 27.210938 C 16.78125 27.253906 16.785156 27.300781 16.789062 27.34375 C 16.800781 27.464844 16.714844 27.574219 16.597656 27.585938 C 16.472656 27.597656 16.375 27.503906 16.363281 27.386719 Z M 16.363281 27.386719 " fill-opacity="0.52" fill-rule="nonzero"/><path fill="#ffffff" d="M 16.667969 26.394531 C 16.558594 26.351562 16.507812 26.222656 16.550781 26.109375 C 16.761719 25.585938 17.125 25.140625 17.570312 24.855469 C 17.671875 24.789062 17.804688 24.824219 17.867188 24.925781 C 17.929688 25.027344 17.898438 25.164062 17.796875 25.226562 C 17.425781 25.464844 17.125 25.839844 16.949219 26.277344 C 16.902344 26.390625 16.777344 26.441406 16.667969 26.394531 Z M 16.667969 26.394531 " fill-opacity="0.52" fill-rule="nonzero"/><path fill="#ffffff" d="M 20.945312 26.726562 C 20.917969 26.339844 20.730469 25.957031 20.441406 25.707031 C 20.351562 25.628906 20.34375 25.492188 20.417969 25.398438 C 20.496094 25.304688 20.628906 25.292969 20.71875 25.371094 C 21.101562 25.703125 21.339844 26.183594 21.375 26.695312 C 21.382812 26.816406 21.292969 26.921875 21.175781 26.929688 C 21.0625 26.9375 20.957031 26.851562 20.945312 26.726562 Z M 20.945312 26.726562 " fill-opacity="0.52" fill-rule="nonzero"/><path fill="#f9e662" d="M 19.007812 26.996094 L 19.023438 26.308594 C 19.191406 26.371094 19.246094 26.503906 19.28125 26.546875 L 19.644531 26.230469 C 19.609375 26.203125 19.449219 25.925781 19.03125 25.859375 L 19.035156 25.625 L 18.589844 25.617188 L 18.585938 25.863281 C 18.242188 25.941406 17.988281 26.214844 17.980469 26.574219 C 17.972656 26.921875 18.164062 27.171875 18.554688 27.320312 L 18.539062 28.015625 C 18.316406 27.9375 18.269531 27.773438 18.238281 27.734375 L 17.863281 28.054688 C 17.894531 28.082031 18.039062 28.410156 18.527344 28.472656 L 18.523438 28.722656 L 18.96875 28.730469 L 18.972656 28.472656 C 19.34375 28.40625 19.617188 28.132812 19.625 27.738281 C 19.636719 27.289062 19.320312 27.113281 19.007812 26.996094 Z M 18.894531 28.132812 L 18.914062 27.347656 C 19.09375 27.414062 19.25 27.519531 19.242188 27.746094 C 19.238281 27.941406 19.089844 28.089844 18.894531 28.132812 Z M 18.664062 26.207031 L 18.648438 26.960938 C 18.480469 26.882812 18.359375 26.796875 18.363281 26.589844 C 18.367188 26.394531 18.480469 26.257812 18.664062 26.207031 Z M 18.664062 26.207031 " fill-opacity="1" fill-rule="nonzero"/><path fill="#ff9f00" d="M 17.84375 28.023438 L 18.160156 27.722656 C 18.171875 27.710938 18.1875 27.710938 18.199219 27.722656 C 18.207031 27.734375 18.207031 27.75 18.195312 27.761719 L 17.882812 28.0625 C 17.855469 28.089844 17.816406 28.050781 17.84375 28.023438 Z M 17.84375 28.023438 " fill-opacity="1" fill-rule="nonzero"/><path fill="#ff9f00" d="M 17.984375 26.789062 C 17.972656 26.789062 17.960938 26.78125 17.960938 26.765625 C 17.898438 26.464844 18.042969 26.128906 18.300781 25.964844 C 18.328125 25.945312 18.359375 25.992188 18.328125 26.011719 C 18.089844 26.164062 17.957031 26.476562 18.011719 26.757812 C 18.015625 26.769531 18.007812 26.785156 17.992188 26.789062 C 17.988281 26.789062 17.988281 26.789062 17.984375 26.789062 Z M 17.984375 26.789062 " fill-opacity="1" fill-rule="nonzero"/><path fill="#ff9f00" d="M 19.535156 26.164062 C 19.457031 26.054688 19.34375 25.976562 19.21875 25.941406 C 19.203125 25.9375 19.195312 25.921875 19.199219 25.90625 C 19.203125 25.890625 19.21875 25.882812 19.234375 25.886719 C 19.371094 25.925781 19.492188 26.011719 19.578125 26.128906 C 19.597656 26.160156 19.554688 26.191406 19.535156 26.164062 Z M 19.535156 26.164062 " fill-opacity="1" fill-rule="nonzero"/><path fill="#ff9f00" d="M 20.007812 24.976562 L 20.046875 24.957031 C 20.078125 24.941406 20.101562 24.992188 20.070312 25.007812 L 20.035156 25.023438 C 20.003906 25.039062 19.976562 24.992188 20.007812 24.976562 Z M 20.007812 24.976562 " fill-opacity="1" fill-rule="nonzero"/><path fill="#ff9f00" d="M 20.449219 24.921875 C 20.445312 24.921875 20.445312 24.921875 20.445312 24.921875 L 20.433594 24.921875 L 20.441406 24.867188 L 20.4375 24.894531 L 20.441406 24.867188 L 20.453125 24.867188 C 20.46875 24.871094 20.476562 24.882812 20.472656 24.898438 C 20.472656 24.914062 20.460938 24.921875 20.449219 24.921875 Z M 20.449219 24.921875 " fill-opacity="1" fill-rule="nonzero"/><path fill="#ff9f00" d="M 20.328125 25.230469 L 20.320312 25.21875 C 20.296875 25.191406 20.339844 25.15625 20.363281 25.1875 L 20.371094 25.199219 C 20.382812 25.210938 20.378906 25.226562 20.367188 25.238281 C 20.355469 25.246094 20.339844 25.242188 20.328125 25.230469 Z M 20.328125 25.230469 " fill-opacity="1" fill-rule="nonzero"/><path fill="#ff9f00" d="M 17.203125 29.0625 L 17.210938 29.054688 C 17.242188 29.03125 17.273438 29.074219 17.25 29.09375 L 17.238281 29.105469 C 17.210938 29.128906 17.175781 29.085938 17.203125 29.0625 Z M 17.203125 29.0625 " fill-opacity="1" fill-rule="nonzero"/><path fill="#ff9f00" d="M 17.53125 28.84375 L 17.554688 28.835938 C 17.589844 28.828125 17.601562 28.878906 17.570312 28.890625 L 17.546875 28.898438 C 17.511719 28.90625 17.496094 28.855469 17.53125 28.84375 Z M 17.53125 28.84375 " fill-opacity="1" fill-rule="nonzero"/><path fill="#ff9f00" d="M 17.625 29.199219 L 17.636719 29.1875 C 17.664062 29.167969 17.695312 29.210938 17.667969 29.234375 L 17.65625 29.242188 C 17.628906 29.265625 17.59375 29.222656 17.625 29.199219 Z M 17.625 29.199219 " fill-opacity="1" fill-rule="nonzero"/><path fill="#ff9f00" d="M 19.828125 27.546875 C 19.820312 27.546875 19.8125 27.542969 19.804688 27.535156 C 19.796875 27.523438 19.800781 27.503906 19.8125 27.496094 L 19.835938 27.476562 C 19.847656 27.46875 19.867188 27.472656 19.875 27.484375 C 19.882812 27.496094 19.878906 27.515625 19.867188 27.523438 L 19.84375 27.542969 C 19.839844 27.542969 19.832031 27.546875 19.828125 27.546875 Z M 19.828125 27.546875 " fill-opacity="1" fill-rule="nonzero"/><path fill="#ff9f00" d="M 20.132812 27.332031 L 20.113281 27.316406 C 20.101562 27.308594 20.097656 27.292969 20.105469 27.277344 C 20.113281 27.265625 20.132812 27.265625 20.144531 27.273438 L 20.164062 27.285156 C 20.175781 27.296875 20.179688 27.3125 20.171875 27.324219 C 20.160156 27.335938 20.144531 27.339844 20.132812 27.332031 Z M 20.132812 27.332031 " fill-opacity="1" fill-rule="nonzero"/><path fill="#ff9f00" d="M 17.429688 26.628906 C 17.417969 26.628906 17.40625 26.617188 17.40625 26.601562 C 17.402344 26.585938 17.414062 26.574219 17.429688 26.570312 L 17.472656 26.566406 C 17.507812 26.5625 17.515625 26.617188 17.480469 26.621094 L 17.433594 26.625 C 17.433594 26.628906 17.433594 26.628906 17.429688 26.628906 Z M 17.429688 26.628906 " fill-opacity="1" fill-rule="nonzero"/><path fill="#ffffff" d="M 16.628906 16.90625 C 16.402344 16.90625 16.332031 16.59375 16.53125 16.488281 C 16.582031 16.460938 16.636719 16.433594 16.691406 16.40625 C 16.796875 16.351562 16.925781 16.398438 16.980469 16.507812 C 17.03125 16.613281 16.988281 16.746094 16.882812 16.800781 C 16.828125 16.828125 16.777344 16.855469 16.726562 16.882812 C 16.695312 16.898438 16.660156 16.90625 16.628906 16.90625 Z M 16.628906 16.90625 " fill-opacity="0.52" fill-rule="nonzero"/><path fill="#ffffff" d="M 14.375 18.742188 C 14.199219 18.742188 14.09375 18.53125 14.207031 18.382812 C 14.644531 17.828125 15.144531 17.363281 15.746094 16.957031 C 15.847656 16.890625 15.980469 16.917969 16.042969 17.019531 C 16.109375 17.121094 16.082031 17.257812 15.984375 17.324219 C 15.417969 17.703125 14.949219 18.140625 14.542969 18.660156 C 14.5 18.714844 14.4375 18.742188 14.375 18.742188 Z M 14.375 18.742188 " fill-opacity="0.52" fill-rule="nonzero"/><path fill="#ffffff" d="M 22.976562 19.214844 C 22.859375 18.617188 22.519531 18.058594 22.042969 17.691406 C 21.949219 17.617188 21.933594 17.480469 22.003906 17.382812 C 22.074219 17.285156 22.210938 17.265625 22.304688 17.339844 C 22.859375 17.773438 23.257812 18.425781 23.398438 19.125 C 23.421875 19.246094 23.347656 19.363281 23.230469 19.386719 C 23.113281 19.410156 23 19.332031 22.976562 19.214844 Z M 22.976562 19.214844 " fill-opacity="0.52" fill-rule="nonzero"/></svg>