<svg xmlns="http://www.w3.org/2000/svg" xmlns:xlink="http://www.w3.org/1999/xlink" width="100" zoomAndPan="magnify" viewBox="0 0 75 74.999997" height="100" preserveAspectRatio="xMidYMid meet" version="1.0"><defs><clipPath id="e28a4e1609"><path d="M 3.75 61 L 10 61 L 10 67 L 3.75 67 Z M 3.75 61 " clip-rule="nonzero"/></clipPath><clipPath id="4d838b8b3d"><path d="M 18 61 L 21.75 61 L 21.75 67 L 18 67 Z M 18 61 " clip-rule="nonzero"/></clipPath><clipPath id="3bfc06bc4b"><path d="M 8 60.148438 L 14 60.148438 L 14 67.648438 L 8 67.648438 Z M 8 60.148438 " clip-rule="nonzero"/></clipPath><clipPath id="d56ee7a9f7"><path d="M 3.75 60.148438 L 19 60.148438 L 19 67.648438 L 3.75 67.648438 Z M 3.75 60.148438 " clip-rule="nonzero"/></clipPath></defs><path fill="#451326" d="M 9.507812 22.832031 C 9.453125 22.785156 9.445312 22.699219 9.496094 22.644531 C 9.671875 22.445312 7.9375 21.207031 36.425781 45.71875 C 27.730469 30.585938 27.914062 31.289062 28.144531 31.152344 C 28.207031 31.117188 28.289062 31.136719 28.328125 31.203125 C 37.496094 47.132812 37.191406 46.304688 37.023438 46.445312 C 36.824219 46.601562 37.628906 47.003906 9.507812 22.832031 Z M 9.507812 22.832031 " fill-opacity="1" fill-rule="nonzero"/><path fill="#451326" d="M 36.839844 46.433594 C 18.566406 27.097656 19.355469 28.210938 19.546875 28.027344 C 19.601562 27.976562 19.683594 27.976562 19.734375 28.03125 C 38.007812 47.363281 37.222656 46.253906 37.03125 46.4375 C 37.003906 46.460938 36.886719 46.484375 36.839844 46.433594 Z M 36.839844 46.433594 " fill-opacity="1" fill-rule="nonzero"/><path fill="#451326" d="M 41.066406 46.464844 C 40.902344 46.367188 40.679688 47.640625 46.65625 25.996094 C 46.703125 25.820312 46.960938 25.902344 46.914062 26.066406 L 41.390625 45.941406 C 67.179688 22.5 65.613281 23.675781 65.785156 23.871094 C 65.835938 23.921875 65.832031 24.007812 65.777344 24.058594 C 40.214844 47.355469 41.214844 46.558594 41.066406 46.464844 Z M 41.066406 46.464844 " fill-opacity="1" fill-rule="nonzero"/><path fill="#451326" d="M 41.0625 46.464844 C 40.839844 46.320312 40.207031 47.644531 55.640625 23.921875 C 55.734375 23.773438 55.960938 23.917969 55.863281 24.066406 C 40.691406 47.234375 41.25 46.582031 41.0625 46.464844 Z M 41.0625 46.464844 " fill-opacity="1" fill-rule="nonzero"/><path fill="#00ffa4" d="M 65.894531 24.1875 C 65.777344 24.203125 46.667969 26.042969 46.449219 26.0625 C 46.660156 24.890625 46.871094 23.703125 46.96875 22.515625 C 47.433594 17.238281 45.238281 13.796875 39.925781 13.105469 C 43.1875 10.476562 46.515625 8.808594 48.894531 8.113281 C 48.894531 8.113281 48.894531 8.113281 48.90625 8.113281 C 50.703125 7.566406 52.695312 7.398438 54.46875 7.84375 C 57.105469 8.445312 58.589844 9.882812 60.445312 11.371094 C 63.679688 14.761719 65.078125 19.570312 65.894531 24.1875 Z M 65.894531 24.1875 " fill-opacity="1" fill-rule="nonzero"/><path fill="#03e08b" d="M 45.394531 14.179688 C 45.292969 14.574219 45.113281 14.957031 44.992188 15.351562 C 43.617188 13.925781 41.734375 13.339844 39.925781 13.105469 C 40.304688 12.796875 40.6875 12.488281 41.09375 12.203125 C 42.667969 12.449219 44.183594 13.132812 45.394531 14.179688 Z M 45.394531 14.179688 " fill-opacity="1" fill-rule="nonzero"/><path fill="#03e08b" d="M 54.894531 8.910156 C 54.058594 8.402344 53.183594 7.960938 52.269531 7.597656 C 52.765625 7.5625 53.664062 7.640625 54.46875 7.84375 C 54.761719 8.152344 54.90625 8.53125 54.894531 8.910156 Z M 54.894531 8.910156 " fill-opacity="1" fill-rule="nonzero"/><path fill="#04bf73" d="M 62.683594 19.574219 C 61.210938 20.308594 59.921875 21.820312 59.847656 23.449219 C 58.300781 23.472656 53.59375 23.660156 51.0625 23.730469 C 50.953125 22.207031 49.941406 20.855469 48.476562 20.414062 C 48.289062 16.390625 45.261719 12.847656 41.09375 12.203125 C 43.839844 10.15625 46.820312 8.71875 48.894531 8.113281 C 48.894531 8.113281 48.894531 8.113281 48.90625 8.113281 C 50.007812 7.777344 51.136719 7.582031 52.269531 7.597656 C 57.609375 9.722656 61.339844 14.25 62.683594 19.574219 Z M 62.683594 19.574219 " fill-opacity="1" fill-rule="nonzero"/><path fill="#049e5c" d="M 45.394531 14.179688 C 44.183594 13.132812 42.667969 12.449219 41.09375 12.203125 C 41.742188 11.722656 42.410156 11.261719 43.105469 10.835938 C 43.644531 12.105469 45.917969 12.167969 45.394531 14.179688 Z M 45.394531 14.179688 " fill-opacity="1" fill-rule="nonzero"/><path fill="#049e5c" d="M 58.078125 23.417969 C 58.078125 23.4375 58.085938 23.472656 58.097656 23.496094 C 56.632812 23.539062 55.144531 23.59375 53.664062 23.648438 C 53.886719 22.90625 54.417969 22.191406 54.253906 21.429688 C 53.988281 20.199219 52.179688 19.871094 51.8125 18.671875 C 51.5625 17.859375 52.082031 17.011719 52.25 16.1875 C 52.644531 14.136719 50.3125 14.226562 49.847656 12.839844 C 49.488281 11.753906 50.664062 10.605469 50.328125 9.507812 C 50.117188 8.871094 49.476562 8.511719 48.90625 8.113281 C 50.007812 7.777344 51.136719 7.582031 52.269531 7.597656 C 53.183594 7.960938 54.058594 8.402344 54.894531 8.910156 C 54.871094 9.859375 54.042969 10.847656 54.347656 11.773438 C 54.707031 12.835938 56.304688 13.058594 56.707031 14.109375 C 57.136719 15.234375 55.96875 16.460938 56.316406 17.605469 C 56.683594 18.804688 58.492188 19.132812 58.757812 20.363281 C 58.980469 21.398438 57.910156 22.371094 58.078125 23.417969 Z M 58.078125 23.417969 " fill-opacity="1" fill-rule="nonzero"/><path fill="#00ffa4" d="M 10.0625 23.652344 C 9.5 23.390625 9.214844 22.746094 9.433594 22.167969 C 12.507812 13.964844 20.421875 7.074219 28.511719 3.9375 C 32.191406 2.417969 37.277344 2.4375 41.191406 2.980469 C 46.617188 3.738281 51.945312 5.691406 56.65625 8.613281 C 55.402344 8.011719 54.050781 7.636719 52.628906 7.589844 C 48.101562 7.417969 42.089844 11 38.878906 13.996094 C 33.691406 18.585938 30.265625 24.644531 28.878906 30.816406 C 28.710938 31.570312 27.90625 31.988281 27.207031 31.660156 C 24.136719 30.222656 9.863281 23.5625 10.0625 23.652344 Z M 10.0625 23.652344 " fill-opacity="1" fill-rule="nonzero"/><path fill="#03e08b" d="M 34.949219 2.679688 C 36.636719 2.605469 38.183594 2.648438 39.972656 2.832031 C 38.417969 2.742188 36.863281 2.8125 35.335938 3.027344 C 35.21875 2.902344 35.089844 2.789062 34.949219 2.679688 Z M 34.949219 2.679688 " fill-opacity="1" fill-rule="nonzero"/><path fill="#04bf73" d="M 13.753906 16.976562 C 19.023438 9.949219 27.441406 4.15625 35.335938 3.027344 C 39.792969 2.402344 44.921875 2.914062 51.957031 6.113281 C 41.972656 6.808594 34.101562 13.730469 29.648438 22.605469 C 29.644531 22.617188 29.644531 22.617188 29.644531 22.628906 C 29.074219 23.75 28.800781 24.449219 28.800781 24.449219 C 25.007812 23.476562 23.117188 26.597656 23.117188 26.597656 C 23.007812 26.542969 14.605469 22.425781 15.136719 22.6875 C 16.597656 18.6875 13.753906 16.976562 13.753906 16.976562 Z M 13.753906 16.976562 " fill-opacity="1" fill-rule="nonzero"/><path fill="#049e5c" d="M 35.335938 3.027344 C 36.863281 2.8125 38.417969 2.742188 39.972656 2.832031 C 40.003906 2.839844 40.03125 2.832031 40.0625 2.835938 C 40.4375 2.878906 40.820312 2.925781 41.191406 2.980469 C 41.054688 3.886719 40.769531 4.839844 41.144531 5.640625 C 41.707031 6.824219 43.414062 7.089844 44.28125 7.992188 C 42.433594 8.769531 40.78125 9.765625 39.285156 10.871094 C 38.828125 9.335938 36.382812 9.238281 35.703125 7.785156 C 35.007812 6.308594 36.539062 4.355469 35.335938 3.027344 Z M 35.335938 3.027344 " fill-opacity="1" fill-rule="nonzero"/><path fill="#049e5c" d="M 28.453125 5.113281 C 28.28125 6.003906 27.96875 6.925781 28.363281 7.695312 C 28.996094 8.984375 31.027344 8.972656 31.730469 10.214844 C 32.464844 11.527344 31.21875 13.289062 31.855469 14.644531 C 32.214844 15.410156 33.023438 15.792969 33.792969 16.195312 C 31.785156 18.671875 30.433594 21.042969 29.648438 22.605469 C 29.8125 21.667969 30.296875 20.695312 29.96875 19.808594 C 29.414062 18.320312 27.089844 18.230469 26.414062 16.789062 C 25.765625 15.429688 27.023438 13.671875 26.277344 12.355469 C 25.355469 10.730469 22.261719 11.269531 22.785156 8.320312 C 24.730469 6.972656 26.648438 5.921875 28.453125 5.113281 Z M 28.453125 5.113281 " fill-opacity="1" fill-rule="nonzero"/><path fill="#049e5c" d="M 13.753906 16.976562 C 14.644531 15.789062 15.574219 14.699219 16.511719 13.703125 C 16.5625 13.746094 16.609375 13.8125 16.652344 13.886719 C 17.386719 15.203125 16.140625 16.960938 16.777344 18.328125 C 17.457031 19.761719 19.792969 19.851562 20.335938 21.339844 C 20.769531 22.535156 19.773438 23.851562 19.984375 25.0625 L 15.136719 22.6875 C 16.597656 18.6875 13.753906 16.976562 13.753906 16.976562 Z M 13.753906 16.976562 " fill-opacity="1" fill-rule="nonzero"/><path fill="#03e08b" d="M 39.285156 10.871094 C 40.78125 9.765625 42.433594 8.769531 44.28125 7.992188 C 44.804688 8.542969 44.894531 9.136719 44.761719 9.894531 C 42.503906 11.082031 40.234375 12.734375 38.878906 13.996094 C 38.933594 12.960938 39.601562 11.871094 39.285156 10.871094 Z M 39.285156 10.871094 " fill-opacity="1" fill-rule="nonzero"/><path fill="#03e08b" d="M 29.648438 22.605469 C 30.433594 21.042969 31.785156 18.671875 33.792969 16.195312 C 34.46875 16.554688 35.113281 16.945312 35.386719 17.613281 C 33.523438 19.875 31.96875 22.382812 30.789062 25.0625 C 29.796875 24.425781 29.445312 23.742188 29.648438 22.605469 Z M 29.648438 22.605469 " fill-opacity="1" fill-rule="nonzero"/><path fill="#03e08b" d="M 23.085938 6.625 C 24.84375 5.554688 26.675781 4.648438 28.511719 3.9375 C 28.570312 4.316406 28.523438 4.710938 28.453125 5.113281 C 26.648438 5.921875 24.730469 6.972656 22.785156 8.320312 C 22.875 7.75 23.058594 7.171875 23.085938 6.625 Z M 23.085938 6.625 " fill-opacity="1" fill-rule="nonzero"/><path fill="#03e08b" d="M 11.296875 18.269531 C 12.421875 16.351562 13.804688 14.535156 15.382812 12.859375 C 15.828125 13.074219 16.234375 13.320312 16.511719 13.703125 C 15.574219 14.699219 14.644531 15.789062 13.753906 16.976562 C 13.753906 16.976562 16.597656 18.6875 15.136719 22.6875 L 19.984375 25.0625 C 20.332031 27.410156 24.40625 26.792969 23.960938 30.140625 L 14.664062 25.804688 C 14.875 25.011719 15.164062 24.222656 14.890625 23.484375 C 14.339844 21.996094 12 21.902344 11.332031 20.472656 C 11.015625 19.796875 11.164062 19.027344 11.296875 18.269531 Z M 11.296875 18.269531 " fill-opacity="1" fill-rule="nonzero"/><path fill="#049e5c" d="M 34.824219 10.59375 L 34.996094 10.414062 C 35.121094 10.285156 35.3125 10.46875 35.191406 10.597656 L 35.019531 10.777344 C 34.898438 10.90625 34.703125 10.71875 34.824219 10.59375 Z M 34.824219 10.59375 " fill-opacity="1" fill-rule="nonzero"/><path fill="#049e5c" d="M 33.28125 12.300781 L 33.226562 12.226562 C 33.125 12.078125 33.339844 11.925781 33.445312 12.070312 L 33.5 12.152344 C 33.542969 12.210938 33.527344 12.296875 33.464844 12.335938 C 33.40625 12.378906 33.324219 12.363281 33.28125 12.300781 Z M 33.28125 12.300781 " fill-opacity="1" fill-rule="nonzero"/><path fill="#049e5c" d="M 32.644531 9.011719 L 32.519531 8.917969 C 32.378906 8.8125 32.539062 8.597656 32.679688 8.703125 L 32.800781 8.792969 C 32.863281 8.835938 32.875 8.921875 32.832031 8.980469 C 32.792969 9.039062 32.710938 9.054688 32.644531 9.011719 Z M 32.644531 9.011719 " fill-opacity="1" fill-rule="nonzero"/><path fill="#049e5c" d="M 44.429688 5.527344 C 44.417969 5.527344 44.410156 5.527344 44.402344 5.523438 L 44.359375 5.519531 C 44.296875 5.503906 44.25 5.449219 44.25 5.386719 C 44.25 5.378906 44.253906 5.371094 44.253906 5.363281 C 44.269531 5.289062 44.335938 5.242188 44.410156 5.253906 L 44.453125 5.261719 C 44.515625 5.273438 44.5625 5.332031 44.5625 5.394531 C 44.5625 5.402344 44.5625 5.410156 44.558594 5.417969 C 44.546875 5.480469 44.492188 5.527344 44.429688 5.527344 Z M 44.429688 5.527344 " fill-opacity="1" fill-rule="nonzero"/><path fill="#049e5c" d="M 25.117188 15.585938 L 25.261719 15.542969 C 25.445312 15.5 25.5 15.746094 25.339844 15.796875 L 25.191406 15.84375 C 25.011719 15.882812 24.949219 15.636719 25.117188 15.585938 Z M 25.117188 15.585938 " fill-opacity="1" fill-rule="nonzero"/><path fill="#049e5c" d="M 22.96875 16.71875 L 22.925781 16.574219 C 22.875 16.398438 23.136719 16.332031 23.183594 16.496094 L 23.226562 16.644531 C 23.25 16.714844 23.207031 16.789062 23.136719 16.808594 C 23.054688 16.828125 22.988281 16.785156 22.96875 16.71875 Z M 22.96875 16.71875 " fill-opacity="1" fill-rule="nonzero"/><path fill="#049e5c" d="M 21.890625 12.371094 L 21.78125 12.210938 C 21.679688 12.066406 21.902344 11.910156 22.003906 12.058594 L 22.113281 12.21875 C 22.15625 12.28125 22.140625 12.363281 22.078125 12.40625 C 22.019531 12.445312 21.933594 12.433594 21.890625 12.371094 Z M 21.890625 12.371094 " fill-opacity="1" fill-rule="nonzero"/><path fill="#049e5c" d="M 21.90625 23.070312 L 21.785156 22.976562 C 21.640625 22.871094 21.800781 22.65625 21.945312 22.761719 L 22.066406 22.855469 C 22.125 22.898438 22.136719 22.984375 22.09375 23.042969 C 22.050781 23.101562 21.96875 23.113281 21.90625 23.070312 Z M 21.90625 23.070312 " fill-opacity="1" fill-rule="nonzero"/><path fill="#000000" d="M 58.417969 9.734375 C 52.332031 8.378906 45.699219 9.6875 40.570312 13.199219 C 40.355469 13.160156 40.140625 13.132812 39.925781 13.105469 C 43.199219 10.46875 48.160156 7.554688 52.269531 7.597656 C 53.308594 7.527344 55.066406 7.835938 56.730469 8.660156 C 57.605469 9.191406 58.050781 9.484375 58.417969 9.734375 Z M 58.417969 9.734375 " fill-opacity="0.29" fill-rule="nonzero"/><path fill="#068249" d="M 54.761719 13.511719 C 54.828125 13.75 54.824219 14.003906 54.742188 14.265625 C 54.664062 14.527344 54.515625 14.78125 54.296875 15.027344 C 54.082031 15.273438 53.8125 15.492188 53.492188 15.683594 C 53.167969 15.875 52.820312 16.023438 52.445312 16.132812 C 52.070312 16.242188 51.695312 16.296875 51.320312 16.304688 C 50.945312 16.3125 50.601562 16.269531 50.289062 16.175781 C 49.972656 16.082031 49.710938 15.945312 49.503906 15.765625 C 49.296875 15.582031 49.160156 15.375 49.089844 15.132812 C 49.019531 14.894531 49.027344 14.640625 49.105469 14.378906 C 49.1875 14.117188 49.335938 13.859375 49.550781 13.613281 C 49.769531 13.371094 50.039062 13.152344 50.359375 12.960938 C 50.679688 12.769531 51.027344 12.617188 51.402344 12.511719 C 51.78125 12.402344 52.15625 12.347656 52.527344 12.339844 C 52.902344 12.332031 53.246094 12.375 53.5625 12.46875 C 53.875 12.5625 54.136719 12.699219 54.34375 12.878906 C 54.550781 13.058594 54.691406 13.269531 54.761719 13.511719 Z M 54.761719 13.511719 " fill-opacity="1" fill-rule="nonzero"/><path fill="#068249" d="M 27.972656 12.222656 C 28.335938 12.371094 28.664062 12.554688 28.964844 12.78125 C 29.261719 13.003906 29.507812 13.25 29.695312 13.519531 C 29.886719 13.785156 30.007812 14.054688 30.058594 14.324219 C 30.109375 14.59375 30.089844 14.84375 29.996094 15.078125 C 29.902344 15.308594 29.742188 15.503906 29.515625 15.660156 C 29.289062 15.816406 29.015625 15.925781 28.695312 15.988281 C 28.371094 16.046875 28.023438 16.054688 27.652344 16.007812 C 27.28125 15.960938 26.914062 15.863281 26.554688 15.714844 C 26.191406 15.570312 25.859375 15.382812 25.5625 15.160156 C 25.261719 14.933594 25.019531 14.691406 24.828125 14.421875 C 24.636719 14.15625 24.515625 13.886719 24.464844 13.617188 C 24.414062 13.347656 24.433594 13.09375 24.527344 12.863281 C 24.625 12.632812 24.78125 12.4375 25.007812 12.28125 C 25.234375 12.121094 25.507812 12.011719 25.832031 11.953125 C 26.15625 11.894531 26.5 11.886719 26.871094 11.933594 C 27.242188 11.980469 27.609375 12.078125 27.972656 12.222656 Z M 27.972656 12.222656 " fill-opacity="1" fill-rule="nonzero"/><path fill="#068249" d="M 41.277344 3.53125 C 41.847656 3.761719 42.375 4.03125 42.863281 4.339844 C 43.351562 4.648438 43.761719 4.972656 44.09375 5.3125 C 44.425781 5.652344 44.652344 5.980469 44.777344 6.300781 C 44.902344 6.617188 44.914062 6.902344 44.8125 7.152344 C 44.710938 7.402344 44.503906 7.597656 44.191406 7.738281 C 43.878906 7.878906 43.488281 7.957031 43.011719 7.972656 C 42.539062 7.984375 42.015625 7.929688 41.453125 7.8125 C 40.886719 7.695312 40.316406 7.519531 39.746094 7.289062 C 39.175781 7.058594 38.648438 6.789062 38.160156 6.480469 C 37.671875 6.171875 37.261719 5.847656 36.929688 5.507812 C 36.597656 5.167969 36.371094 4.839844 36.246094 4.523438 C 36.121094 4.203125 36.109375 3.917969 36.210938 3.671875 C 36.3125 3.421875 36.519531 3.226562 36.832031 3.082031 C 37.144531 2.941406 37.535156 2.863281 38.011719 2.851562 C 38.484375 2.839844 39.007812 2.890625 39.570312 3.007812 C 40.136719 3.125 40.707031 3.300781 41.277344 3.53125 Z M 41.277344 3.53125 " fill-opacity="1" fill-rule="nonzero"/><path fill="#068249" d="M 51.957031 6.117188 C 41.886719 6.828125 34.082031 13.792969 29.644531 22.609375 C 29.644531 22.621094 29.644531 22.621094 29.644531 22.628906 C 29.074219 23.75 28.804688 24.445312 28.804688 24.445312 C 25 23.480469 23.117188 26.59375 23.117188 26.59375 C 23.011719 26.542969 14.605469 22.429688 15.140625 22.691406 C 15.394531 22.003906 15.511719 21.382812 15.539062 20.839844 C 15.648438 20.894531 23.324219 24.644531 22.84375 24.410156 C 22.84375 24.410156 24.738281 21.296875 28.53125 22.261719 C 28.53125 22.261719 28.808594 21.566406 29.371094 20.449219 C 29.371094 20.4375 29.371094 20.4375 29.382812 20.425781 C 30.160156 18.859375 31.515625 16.488281 33.53125 14.011719 C 37.292969 9.332031 42.074219 5.902344 47.894531 4.507812 C 49.292969 4.984375 50.652344 5.515625 51.957031 6.117188 Z M 51.957031 6.117188 " fill-opacity="0.5" fill-rule="nonzero"/><path fill="#ffffff" d="M 14.976562 22.75 C 15.378906 21.578125 15.429688 20.269531 15.121094 19.074219 C 14.972656 18.496094 14.59375 17.472656 13.714844 17.117188 C 13.632812 17.085938 13.605469 16.984375 13.65625 16.914062 C 18.828125 9.707031 26.964844 4.523438 35.976562 2.703125 C 36.140625 2.664062 36.207031 2.929688 36.03125 2.964844 C 27.140625 4.761719 19.105469 9.851562 13.96875 16.9375 C 14.847656 17.386719 15.230469 18.414062 15.382812 19.003906 C 15.703125 20.253906 15.648438 21.613281 15.230469 22.835938 C 15.175781 23.007812 14.921875 22.914062 14.976562 22.75 Z M 14.976562 22.75 " fill-opacity="1" fill-rule="nonzero"/><path fill="#03e08b" d="M 46.546875 17.996094 C 47.738281 18.816406 47.414062 19.667969 47.023438 20.886719 C 47.035156 20.265625 46.902344 19.023438 46.546875 17.996094 Z M 46.546875 17.996094 " fill-opacity="1" fill-rule="nonzero"/><path fill="#03e08b" d="M 49.328125 25.792969 C 48.375 25.882812 47.417969 25.972656 46.449219 26.0625 C 46.660156 24.890625 46.871094 23.703125 46.96875 22.515625 C 47.542969 23.761719 49.726562 24.046875 49.328125 25.792969 Z M 49.328125 25.792969 " fill-opacity="1" fill-rule="nonzero"/><path fill="#03e08b" d="M 59.144531 24.835938 C 57.425781 25 55.71875 25.171875 54.007812 25.34375 C 53.53125 24.820312 53.46875 24.289062 53.664062 23.648438 C 55.144531 23.59375 56.632812 23.539062 58.097656 23.496094 C 58.21875 24.066406 58.652344 24.460938 59.144531 24.835938 Z M 59.144531 24.835938 " fill-opacity="1" fill-rule="nonzero"/><path fill="#03e08b" d="M 65.894531 24.1875 C 65.726562 24.207031 65.566406 24.214844 65.394531 24.234375 C 64.714844 23.707031 63.921875 23.246094 63.792969 22.414062 C 63.625 21.367188 64.695312 20.394531 64.472656 19.359375 C 64.207031 18.128906 62.386719 17.800781 62.019531 16.601562 C 61.765625 15.765625 62.335938 14.875 62.480469 14.027344 C 64.300781 17.03125 65.289062 20.761719 65.894531 24.1875 Z M 65.894531 24.1875 " fill-opacity="1" fill-rule="nonzero"/><path fill="#049e5c" d="M 46.148438 12.570312 L 46.195312 12.527344 C 46.320312 12.402344 46.507812 12.589844 46.382812 12.71875 L 46.332031 12.765625 C 46.207031 12.886719 46.015625 12.695312 46.148438 12.570312 Z M 46.148438 12.570312 " fill-opacity="1" fill-rule="nonzero"/><path fill="#049e5c" d="M 48.136719 11.144531 L 48.003906 11.136719 L 48.003906 11.089844 C 48.011719 11.015625 48.085938 10.972656 48.148438 10.964844 C 48.222656 10.96875 48.277344 11.035156 48.273438 11.109375 L 48.136719 11.097656 L 48.269531 11.125 Z M 48.136719 11.144531 " fill-opacity="1" fill-rule="nonzero"/><path fill="#049e5c" d="M 47.984375 13.472656 L 47.9375 13.421875 C 47.816406 13.296875 48.007812 13.109375 48.132812 13.238281 L 48.179688 13.289062 C 48.230469 13.34375 48.226562 13.425781 48.171875 13.476562 C 48.121094 13.527344 48.035156 13.527344 47.984375 13.472656 Z M 47.984375 13.472656 " fill-opacity="1" fill-rule="nonzero"/><path fill="#049e5c" d="M 51.75 21.117188 C 51.734375 21.117188 51.714844 21.117188 51.695312 21.117188 C 51.527344 21.105469 51.527344 20.851562 51.714844 20.851562 L 51.75 20.851562 C 51.824219 20.851562 51.886719 20.910156 51.886719 20.984375 C 51.886719 21.058594 51.824219 21.117188 51.75 21.117188 Z M 51.75 21.117188 " fill-opacity="1" fill-rule="nonzero"/><path fill="#049e5c" d="M 55.828125 20.867188 L 55.6875 20.765625 C 55.546875 20.667969 55.6875 20.445312 55.839844 20.546875 L 55.980469 20.644531 C 56.042969 20.6875 56.058594 20.769531 56.015625 20.832031 C 55.972656 20.890625 55.890625 20.90625 55.828125 20.867188 Z M 55.828125 20.867188 " fill-opacity="1" fill-rule="nonzero"/><path fill="#049e5c" d="M 57.875 16.46875 C 57.855469 16.46875 57.835938 16.46875 57.816406 16.464844 C 57.644531 16.453125 57.652344 16.199219 57.824219 16.199219 C 57.828125 16.199219 57.832031 16.199219 57.835938 16.199219 L 57.875 16.199219 C 57.949219 16.199219 58.007812 16.257812 58.007812 16.332031 C 58.007812 16.40625 57.949219 16.46875 57.875 16.46875 Z M 57.875 16.46875 " fill-opacity="1" fill-rule="nonzero"/><path fill="#049e5c" d="M 59.796875 18.972656 L 59.703125 18.925781 C 59.546875 18.84375 59.671875 18.609375 59.828125 18.6875 L 59.921875 18.738281 C 59.988281 18.773438 60.011719 18.855469 59.976562 18.917969 C 59.941406 18.984375 59.863281 19.007812 59.796875 18.972656 Z M 59.796875 18.972656 " fill-opacity="1" fill-rule="nonzero"/><path fill="#ff9f00" d="M 24.574219 64.585938 C 26.898438 68.230469 30.835938 70.5 35.0625 70.769531 L 39.363281 71.042969 L 41.082031 44.21875 C 37.6875 44.128906 34.480469 43.253906 30.503906 45.058594 C 22.835938 48.40625 20.175781 57.875 24.574219 64.585938 Z M 24.574219 64.585938 " fill-opacity="1" fill-rule="nonzero"/><path fill="#ea8318" d="M 36.003906 44.683594 L 32.203125 44.441406 C 31.621094 44.605469 31.050781 44.808594 30.503906 45.054688 L 44.386719 45.945312 L 44.429688 45.222656 Z M 36.003906 44.683594 " fill-opacity="0.5" fill-rule="nonzero"/><path fill="#ea8318" d="M 26.972656 47.320312 L 44.226562 48.421875 L 44.273438 47.703125 L 27.792969 46.648438 C 27.511719 46.863281 27.234375 47.082031 26.972656 47.320312 Z M 26.972656 47.320312 " fill-opacity="0.5" fill-rule="nonzero"/><path fill="#ea8318" d="M 24.878906 49.675781 L 44.066406 50.902344 L 44.113281 50.179688 L 25.394531 48.984375 C 25.210938 49.210938 25.039062 49.4375 24.878906 49.675781 Z M 24.878906 49.675781 " fill-opacity="0.5" fill-rule="nonzero"/><path fill="#ea8318" d="M 23.539062 52.078125 L 43.90625 53.378906 L 43.953125 52.660156 L 23.867188 51.375 C 23.75 51.605469 23.640625 51.84375 23.539062 52.078125 Z M 23.539062 52.078125 " fill-opacity="0.5" fill-rule="nonzero"/><path fill="#ea8318" d="M 22.765625 54.511719 L 43.75 55.855469 L 43.796875 55.132812 L 22.941406 53.800781 C 22.871094 54.035156 22.8125 54.273438 22.765625 54.511719 Z M 22.765625 54.511719 " fill-opacity="0.5" fill-rule="nonzero"/><path fill="#ea8318" d="M 22.46875 56.984375 L 43.589844 58.332031 L 43.636719 57.613281 L 22.507812 56.261719 C 22.484375 56.441406 22.472656 56.8125 22.46875 56.984375 Z M 22.46875 56.984375 " fill-opacity="0.5" fill-rule="nonzero"/><path fill="#ea8318" d="M 22.539062 58.753906 C 22.554688 58.996094 22.585938 59.242188 22.632812 59.480469 L 43.429688 60.8125 L 43.476562 60.089844 Z M 22.539062 58.753906 " fill-opacity="0.5" fill-rule="nonzero"/><path fill="#ea8318" d="M 23.046875 61.273438 C 23.097656 61.449219 23.183594 61.707031 23.296875 62.015625 L 43.273438 63.289062 L 43.316406 62.570312 Z M 23.046875 61.273438 " fill-opacity="0.5" fill-rule="nonzero"/><path fill="#ea8318" d="M 24.121094 63.828125 C 24.261719 64.085938 24.414062 64.335938 24.578125 64.585938 L 43.113281 65.769531 L 43.160156 65.042969 Z M 24.121094 63.828125 " fill-opacity="0.5" fill-rule="nonzero"/><path fill="#ea8318" d="M 26.003906 66.433594 C 26.347656 66.824219 26.667969 67.101562 26.773438 67.207031 L 42.953125 68.242188 L 43 67.519531 Z M 26.003906 66.433594 " fill-opacity="0.5" fill-rule="nonzero"/><path fill="#ea8318" d="M 29.460938 69.144531 C 30.117188 69.503906 30.679688 69.75 31.339844 69.988281 L 42.796875 70.722656 L 42.839844 70 Z M 29.460938 69.144531 " fill-opacity="0.5" fill-rule="nonzero"/><path fill="#ff9f00" d="M 41.039062 44.925781 L 39.40625 70.339844 C 44.796875 68.910156 48.957031 64.175781 49.363281 58.273438 L 49.367188 58.21875 C 49.757812 52.097656 45.910156 46.792969 41.039062 44.925781 Z M 41.039062 44.925781 " fill-opacity="1" fill-rule="nonzero"/><path fill="#f9e662" d="M 42.808594 70.824219 C 50.796875 69.265625 55.640625 60.96875 52.949219 53.230469 C 49.308594 42.757812 35.195312 40.953125 29.023438 50.171875 C 22.378906 60.082031 31.15625 73.207031 42.808594 70.824219 Z M 42.808594 70.824219 " fill-opacity="1" fill-rule="nonzero"/><path fill="#ffc700" d="M 39.609375 67.140625 C 47.933594 67.671875 52.835938 58.03125 47.632812 51.632812 C 43.191406 46.175781 34.402344 47.191406 31.484375 53.78125 C 28.8125 59.804688 32.972656 66.71875 39.609375 67.140625 Z M 39.609375 67.140625 " fill-opacity="1" fill-rule="nonzero"/><path fill="#ff9f00" d="M 31.484375 53.78125 C 32.167969 53.859375 32.894531 54.117188 33.5 53.824219 C 34.507812 53.347656 34.5 51.765625 35.464844 51.214844 C 36.488281 50.636719 37.925781 51.570312 38.894531 50.902344 C 39.863281 50.238281 39.554688 48.425781 40.964844 48.140625 C 40.921875 48.132812 40.875 48.128906 40.832031 48.128906 C 36.71875 47.863281 33.054688 50.234375 31.484375 53.78125 Z M 31.484375 53.78125 " fill-opacity="0.5" fill-rule="nonzero"/><path fill="#ff9f00" d="M 31.296875 61.023438 C 31.816406 62.390625 32.648438 63.609375 33.707031 64.597656 C 34.675781 64.191406 34.628906 62.523438 35.589844 62.003906 C 36.515625 61.507812 37.734375 62.375 38.683594 61.921875 C 39.691406 61.441406 39.683594 59.855469 40.648438 59.308594 C 41.671875 58.726562 43.109375 59.660156 44.078125 59 C 44.894531 58.433594 44.789062 57.09375 45.574219 56.492188 C 46.714844 55.609375 48.449219 56.949219 49.589844 55.824219 C 49.289062 54.265625 48.605469 52.832031 47.632812 51.632812 C 47.378906 52.109375 47.089844 52.460938 46.574219 52.621094 C 45.511719 52.945312 44.117188 52.191406 43.207031 52.894531 C 42.421875 53.5 42.527344 54.839844 41.707031 55.402344 C 40.742188 56.0625 39.300781 55.128906 38.28125 55.707031 C 37.316406 56.261719 37.324219 57.84375 36.320312 58.320312 C 35.371094 58.777344 34.148438 57.910156 33.21875 58.40625 C 32.273438 58.921875 32.277344 60.675781 31.296875 61.023438 Z M 31.296875 61.023438 " fill-opacity="0.5" fill-rule="nonzero"/><path fill="#ff9f00" d="M 40.535156 67.15625 C 44.207031 67.042969 47.410156 64.828125 48.886719 61.617188 C 48.183594 61.539062 48.042969 61.589844 47.9375 61.59375 C 46.296875 61.777344 46.683594 63.691406 45.671875 64.390625 C 44.710938 65.054688 43.265625 64.121094 42.25 64.703125 C 41.375 65.203125 41.296875 66.558594 40.535156 67.15625 Z M 40.535156 67.15625 " fill-opacity="0.5" fill-rule="nonzero"/><path fill="#ea8318" d="M 48.488281 58.96875 C 48.292969 62.015625 46.679688 64.640625 44.328125 66.234375 C 47.339844 64.796875 49.511719 61.8125 49.742188 58.242188 C 50.253906 50.253906 41.28125 45.328125 34.820312 49.785156 C 41.324219 46.640625 48.957031 51.652344 48.488281 58.96875 Z M 48.488281 58.96875 " fill-opacity="0.5" fill-rule="nonzero"/><path fill="#ffc700" d="M 26.804688 56.523438 C 27.425781 56.617188 28.058594 56.769531 28.589844 56.476562 C 29.808594 55.796875 29.324219 53.492188 31.484375 53.78125 C 33.214844 49.871094 37.332031 47.734375 40.988281 48.144531 C 41.960938 47.933594 43.203125 48.515625 44.097656 47.976562 C 44.996094 47.445312 45.070312 46.066406 45.835938 45.417969 C 44.601562 44.855469 43.261719 44.464844 41.851562 44.292969 C 40.933594 45.097656 39.054688 44.003906 38.023438 44.800781 C 37.238281 45.402344 37.34375 46.742188 36.527344 47.308594 C 35.558594 47.96875 34.121094 47.035156 33.097656 47.617188 C 32.132812 48.164062 32.140625 49.75 31.136719 50.230469 C 30.492188 50.535156 29.734375 50.242188 29.023438 50.171875 C 27.789062 52.007812 26.996094 54.171875 26.804688 56.523438 Z M 26.804688 56.523438 " fill-opacity="0.5" fill-rule="nonzero"/><path fill="#ffc700" d="M 27.472656 61.960938 C 27.957031 63.40625 28.695312 64.742188 29.625 65.925781 C 29.90625 65.441406 30.171875 64.933594 30.65625 64.703125 C 31.589844 64.246094 32.789062 65.042969 33.707031 64.597656 C 32.648438 63.609375 31.816406 62.390625 31.296875 61.023438 C 30.382812 61.421875 29.203125 60.660156 28.289062 61.105469 C 27.925781 61.28125 27.6875 61.601562 27.472656 61.960938 Z M 27.472656 61.960938 " fill-opacity="0.5" fill-rule="nonzero"/><path fill="#ffc700" d="M 47.632812 51.632812 C 48.605469 52.832031 49.289062 54.265625 49.589844 55.824219 C 50.285156 55.117188 50.378906 53.796875 51.292969 53.324219 C 51.789062 53.066406 52.367188 53.152344 52.949219 53.230469 C 52.503906 51.957031 51.871094 50.765625 51.082031 49.695312 C 50.34375 49.632812 49.570312 49.394531 48.925781 49.726562 C 48.230469 50.085938 48.007812 50.933594 47.632812 51.632812 Z M 47.632812 51.632812 " fill-opacity="0.5" fill-rule="nonzero"/><path fill="#ffc700" d="M 35.109375 70.066406 C 37.34375 70.988281 39.359375 71.035156 39.472656 71.054688 C 39.941406 70.640625 41 70.933594 41.527344 71.003906 C 41.960938 70.96875 42.386719 70.910156 42.808594 70.824219 C 43.65625 70.261719 43.703125 68.816406 44.617188 68.296875 C 45.632812 67.722656 47.078125 68.65625 48.039062 67.988281 C 48.855469 67.429688 48.757812 66.089844 49.542969 65.480469 C 50.039062 65.101562 50.679688 65.148438 51.332031 65.222656 C 52.652344 63.308594 53.484375 61.03125 53.65625 58.546875 C 51.816406 58.539062 52.082031 60.75 50.878906 61.464844 C 50.304688 61.804688 49.585938 61.6875 48.886719 61.617188 C 47.410156 64.828125 44.207031 67.042969 40.535156 67.15625 C 39.578125 67.929688 38.191406 66.859375 37.1875 67.398438 C 36.167969 67.945312 36.289062 69.78125 35.109375 70.066406 Z M 35.109375 70.066406 " fill-opacity="0.5" fill-rule="nonzero"/><path fill="#ffffff" d="M 33.617188 64.695312 C 33.484375 64.570312 33.675781 64.382812 33.800781 64.5 C 38.511719 68.886719 46.109375 67.332031 48.765625 61.5625 C 51.503906 55.640625 47.472656 48.703125 40.84375 48.261719 L 40.832031 48.128906 L 40.839844 47.992188 C 47.949219 48.566406 51.746094 55.765625 49.007812 61.671875 C 46.28125 67.601562 38.464844 69.210938 33.617188 64.695312 Z M 33.617188 64.695312 " fill-opacity="1" fill-rule="nonzero"/><path fill="#ffffff" d="M 35.0625 70.191406 C 27.269531 67.027344 24.054688 57.335938 28.914062 50.097656 C 32.832031 44.242188 39.1875 44.074219 39.082031 44.109375 C 39.25 44.109375 39.261719 44.363281 39.09375 44.375 C 28.5 45.257812 23.230469 57.582031 29.730469 65.84375 C 31.15625 67.664062 33.035156 69.082031 35.160156 69.941406 C 35.230469 69.972656 35.261719 70.050781 35.234375 70.117188 C 35.207031 70.183594 35.136719 70.21875 35.0625 70.191406 Z M 35.0625 70.191406 " fill-opacity="1" fill-rule="nonzero"/><path fill="#e26c24" d="M 27.4375 51.765625 C 26.402344 51.699219 23.851562 51.535156 24.007812 51.546875 C 23.839844 51.535156 23.839844 51.28125 24.027344 51.277344 L 27.445312 51.5 C 27.519531 51.503906 27.574219 51.566406 27.570312 51.640625 C 27.566406 51.710938 27.507812 51.765625 27.4375 51.765625 Z M 27.4375 51.765625 " fill-opacity="1" fill-rule="nonzero"/><path fill="#e26c24" d="M 26.515625 56.722656 C 25.269531 56.640625 22.671875 56.476562 22.832031 56.488281 C 22.660156 56.476562 22.667969 56.21875 22.839844 56.21875 C 24.085938 56.300781 26.683594 56.464844 26.523438 56.453125 C 26.597656 56.460938 26.652344 56.523438 26.648438 56.597656 C 26.644531 56.667969 26.585938 56.722656 26.515625 56.722656 Z M 26.515625 56.722656 " fill-opacity="1" fill-rule="nonzero"/><path fill="#e26c24" d="M 26.800781 61.632812 C 26.796875 61.632812 26.796875 61.632812 26.792969 61.632812 L 24.066406 61.460938 C 23.902344 61.449219 23.894531 61.203125 24.085938 61.191406 L 26.808594 61.367188 C 26.980469 61.378906 26.972656 61.632812 26.800781 61.632812 Z M 26.800781 61.632812 " fill-opacity="1" fill-rule="nonzero"/><path fill="#e26c24" d="M 27.503906 64.207031 C 27.5 64.207031 27.496094 64.207031 27.496094 64.207031 L 25.136719 64.058594 C 24.96875 64.046875 24.964844 63.792969 25.152344 63.789062 L 27.511719 63.941406 C 27.585938 63.945312 27.640625 64.007812 27.636719 64.082031 C 27.632812 64.152344 27.574219 64.207031 27.503906 64.207031 Z M 27.503906 64.207031 " fill-opacity="1" fill-rule="nonzero"/><path fill="#e26c24" d="M 29.136719 66.808594 C 29.023438 66.800781 26.535156 66.644531 26.695312 66.652344 C 26.523438 66.640625 26.527344 66.386719 26.710938 66.386719 L 29.144531 66.542969 C 29.21875 66.546875 29.277344 66.609375 29.269531 66.683594 C 29.265625 66.753906 29.207031 66.808594 29.136719 66.808594 Z M 29.136719 66.808594 " fill-opacity="1" fill-rule="nonzero"/><path fill="#e26c24" d="M 31.410156 46.984375 C 30.941406 46.953125 28.453125 46.792969 28.613281 46.804688 C 28.449219 46.792969 28.4375 46.546875 28.628906 46.539062 L 31.417969 46.714844 C 31.492188 46.722656 31.546875 46.785156 31.542969 46.859375 C 31.539062 46.929688 31.480469 46.984375 31.410156 46.984375 Z M 31.410156 46.984375 " fill-opacity="1" fill-rule="nonzero"/><path fill="#e26c24" d="M 35.023438 44.71875 C 34.78125 44.703125 33.019531 44.589844 33.132812 44.597656 C 32.96875 44.585938 32.949219 44.347656 33.148438 44.332031 L 35.03125 44.449219 C 35.105469 44.457031 35.160156 44.519531 35.15625 44.59375 C 35.152344 44.664062 35.09375 44.71875 35.023438 44.71875 Z M 35.023438 44.71875 " fill-opacity="1" fill-rule="nonzero"/><path fill="#e26c24" d="M 32.507812 69.386719 C 32.503906 69.386719 32.503906 69.386719 32.5 69.386719 L 30.441406 69.253906 C 30.277344 69.242188 30.265625 69 30.457031 68.988281 L 32.515625 69.117188 C 32.589844 69.125 32.644531 69.1875 32.640625 69.261719 C 32.636719 69.332031 32.578125 69.386719 32.507812 69.386719 Z M 32.507812 69.386719 " fill-opacity="1" fill-rule="nonzero"/><path fill="#e26c24" d="M 29.003906 49.316406 C 28.664062 49.296875 26.183594 49.140625 26.339844 49.148438 C 26.171875 49.136719 26.175781 48.878906 26.359375 48.882812 L 29.015625 49.050781 C 29.089844 49.054688 29.144531 49.121094 29.140625 49.191406 C 29.132812 49.265625 29.074219 49.316406 29.003906 49.316406 Z M 29.003906 49.316406 " fill-opacity="1" fill-rule="nonzero"/><path fill="#e26c24" d="M 25.636719 59.039062 C 25.46875 59.027344 23.402344 58.894531 23.535156 58.90625 C 23.363281 58.890625 23.367188 58.640625 23.550781 58.636719 L 25.644531 58.769531 C 25.71875 58.777344 25.773438 58.839844 25.769531 58.914062 C 25.765625 58.984375 25.707031 59.039062 25.636719 59.039062 Z M 25.636719 59.039062 " fill-opacity="1" fill-rule="nonzero"/><path fill="#e26c24" d="M 26.570312 54.054688 C 25.535156 53.988281 23.007812 53.828125 23.167969 53.839844 C 22.996094 53.824219 23 53.570312 23.183594 53.570312 L 26.582031 53.789062 C 26.65625 53.792969 26.710938 53.855469 26.707031 53.929688 C 26.699219 54 26.640625 54.054688 26.570312 54.054688 Z M 26.570312 54.054688 " fill-opacity="1" fill-rule="nonzero"/><path fill="#ffffff" d="M 27.648438 59.140625 C 27.621094 58.878906 27.601562 58.621094 27.59375 58.359375 C 27.574219 57.769531 28.035156 57.273438 28.628906 57.253906 C 29.226562 57.191406 29.714844 57.691406 29.734375 58.28125 C 29.746094 58.5 29.757812 58.714844 29.78125 58.925781 C 29.839844 59.515625 29.410156 60.039062 28.824219 60.097656 C 28.199219 60.152344 27.707031 59.707031 27.648438 59.140625 Z M 27.648438 59.140625 " fill-opacity="0.52" fill-rule="nonzero"/><path fill="#ffffff" d="M 29.179688 54.316406 C 28.632812 54.089844 28.371094 53.464844 28.597656 52.917969 C 29.652344 50.378906 31.460938 48.214844 33.695312 46.824219 C 34.195312 46.507812 34.859375 46.660156 35.171875 47.160156 C 35.484375 47.664062 35.332031 48.324219 34.832031 48.636719 C 32.972656 49.792969 31.460938 51.605469 30.578125 53.738281 C 30.351562 54.28125 29.722656 54.539062 29.179688 54.316406 Z M 29.179688 54.316406 " fill-opacity="0.52" fill-rule="nonzero"/><path fill="#ffffff" d="M 50.585938 55.921875 C 50.449219 54.039062 49.507812 52.1875 48.066406 50.96875 C 47.617188 50.589844 47.558594 49.914062 47.941406 49.464844 C 48.324219 49.011719 49 48.957031 49.453125 49.339844 C 51.351562 50.945312 52.542969 53.289062 52.722656 55.769531 C 52.765625 56.355469 52.320312 56.867188 51.730469 56.910156 C 51.160156 56.957031 50.628906 56.523438 50.585938 55.921875 Z M 50.585938 55.921875 " fill-opacity="0.52" fill-rule="nonzero"/><path fill="#f9e662" d="M 40.878906 57.230469 L 40.953125 53.898438 C 41.808594 54.1875 42.074219 54.839844 42.261719 55.050781 L 44.0625 53.507812 C 43.902344 53.375 43.09375 52.019531 41 51.699219 L 41.027344 50.570312 L 38.800781 50.519531 L 38.777344 51.730469 C 37.054688 52.101562 35.785156 53.441406 35.746094 55.1875 C 35.703125 56.882812 36.671875 58.097656 38.609375 58.8125 L 38.535156 62.195312 C 37.425781 61.804688 37.183594 61.007812 37.03125 60.824219 L 35.167969 62.386719 C 35.316406 62.523438 36.042969 64.105469 38.484375 64.425781 L 38.453125 65.628906 L 40.683594 65.679688 L 40.714844 64.417969 C 42.566406 64.097656 43.933594 62.773438 43.976562 60.851562 C 44.023438 58.652344 42.457031 57.804688 40.878906 57.230469 Z M 40.324219 62.753906 L 40.410156 58.9375 C 41.308594 59.273438 42.09375 59.78125 42.066406 60.875 C 42.042969 61.835938 41.300781 62.558594 40.324219 62.753906 Z M 39.164062 53.402344 L 39.082031 57.070312 C 38.25 56.683594 37.632812 56.257812 37.652344 55.261719 C 37.675781 54.316406 38.25 53.644531 39.164062 53.402344 Z M 39.164062 53.402344 " fill-opacity="1" fill-rule="nonzero"/><path fill="#ff9f00" d="M 35.066406 62.234375 L 36.648438 60.761719 C 36.699219 60.710938 36.78125 60.714844 36.835938 60.769531 C 36.886719 60.824219 36.882812 60.90625 36.828125 60.957031 L 35.246094 62.429688 C 35.125 62.550781 34.933594 62.359375 35.066406 62.234375 Z M 35.066406 62.234375 " fill-opacity="1" fill-rule="nonzero"/><path fill="#ff9f00" d="M 35.773438 56.226562 C 35.710938 56.226562 35.65625 56.183594 35.640625 56.117188 C 35.34375 54.644531 36.058594 53.007812 37.339844 52.222656 C 37.492188 52.132812 37.632812 52.359375 37.480469 52.449219 C 36.289062 53.179688 35.625 54.699219 35.902344 56.066406 C 35.917969 56.136719 35.871094 56.207031 35.800781 56.222656 C 35.789062 56.226562 35.78125 56.226562 35.773438 56.226562 Z M 35.773438 56.226562 " fill-opacity="1" fill-rule="nonzero"/><path fill="#ff9f00" d="M 43.519531 53.179688 C 43.128906 52.65625 42.570312 52.269531 41.9375 52.101562 C 41.867188 52.078125 41.824219 52.007812 41.84375 51.933594 C 41.863281 51.863281 41.933594 51.820312 42.007812 51.839844 C 42.699219 52.027344 43.3125 52.449219 43.734375 53.023438 C 43.839844 53.164062 43.625 53.324219 43.519531 53.179688 Z M 43.519531 53.179688 " fill-opacity="1" fill-rule="nonzero"/><path fill="#ff9f00" d="M 45.898438 47.402344 L 46.078125 47.3125 C 46.242188 47.238281 46.351562 47.476562 46.195312 47.554688 L 46.019531 47.640625 C 45.863281 47.722656 45.738281 47.484375 45.898438 47.402344 Z M 45.898438 47.402344 " fill-opacity="1" fill-rule="nonzero"/><path fill="#ff9f00" d="M 48.089844 47.148438 C 48.085938 47.148438 48.078125 47.148438 48.070312 47.144531 L 48.027344 47.140625 L 48.050781 46.875 L 48.035156 47.007812 L 48.058594 46.875 L 48.113281 46.882812 C 48.1875 46.894531 48.234375 46.964844 48.222656 47.035156 C 48.210938 47.101562 48.15625 47.148438 48.089844 47.148438 Z M 48.089844 47.148438 " fill-opacity="1" fill-rule="nonzero"/><path fill="#ff9f00" d="M 47.496094 48.652344 L 47.449219 48.589844 C 47.34375 48.449219 47.554688 48.285156 47.664062 48.425781 L 47.710938 48.488281 C 47.753906 48.550781 47.742188 48.632812 47.683594 48.675781 C 47.628906 48.71875 47.542969 48.710938 47.496094 48.652344 Z M 47.496094 48.652344 " fill-opacity="1" fill-rule="nonzero"/><path fill="#ff9f00" d="M 31.863281 67.285156 L 31.898438 67.253906 C 32.054688 67.140625 32.214844 67.351562 32.089844 67.445312 L 32.03125 67.492188 C 31.890625 67.605469 31.722656 67.394531 31.863281 67.285156 Z M 31.863281 67.285156 " fill-opacity="1" fill-rule="nonzero"/><path fill="#ff9f00" d="M 33.496094 66.226562 L 33.613281 66.191406 C 33.792969 66.148438 33.851562 66.398438 33.6875 66.445312 L 33.570312 66.480469 C 33.390625 66.527344 33.328125 66.273438 33.496094 66.226562 Z M 33.496094 66.226562 " fill-opacity="1" fill-rule="nonzero"/><path fill="#ff9f00" d="M 33.957031 67.949219 L 34.023438 67.902344 C 34.160156 67.796875 34.324219 68.007812 34.183594 68.117188 L 34.121094 68.164062 C 33.980469 68.269531 33.816406 68.058594 33.957031 67.949219 Z M 33.957031 67.949219 " fill-opacity="1" fill-rule="nonzero"/><path fill="#ff9f00" d="M 44.984375 59.910156 C 44.945312 59.910156 44.902344 59.894531 44.878906 59.855469 C 44.835938 59.796875 44.847656 59.714844 44.90625 59.667969 L 45.035156 59.578125 C 45.097656 59.535156 45.179688 59.546875 45.222656 59.609375 C 45.265625 59.667969 45.25 59.753906 45.191406 59.796875 L 45.0625 59.886719 C 45.039062 59.902344 45.011719 59.910156 44.984375 59.910156 Z M 44.984375 59.910156 " fill-opacity="1" fill-rule="nonzero"/><path fill="#ff9f00" d="M 46.511719 58.867188 L 46.410156 58.796875 C 46.351562 58.753906 46.335938 58.671875 46.378906 58.609375 C 46.421875 58.546875 46.507812 58.535156 46.566406 58.578125 L 46.667969 58.648438 C 46.726562 58.691406 46.742188 58.773438 46.699219 58.835938 C 46.660156 58.894531 46.574219 58.910156 46.511719 58.867188 Z M 46.511719 58.867188 " fill-opacity="1" fill-rule="nonzero"/><path fill="#ff9f00" d="M 32.996094 55.4375 C 32.929688 55.4375 32.871094 55.386719 32.863281 55.316406 C 32.855469 55.246094 32.910156 55.179688 32.984375 55.171875 L 33.207031 55.148438 C 33.386719 55.128906 33.414062 55.394531 33.238281 55.414062 L 33.007812 55.4375 C 33.003906 55.4375 33 55.4375 32.996094 55.4375 Z M 32.996094 55.4375 " fill-opacity="1" fill-rule="nonzero"/><path fill="#ffffff" d="M 28.976562 8.144531 C 27.851562 8.144531 27.492188 6.632812 28.488281 6.125 C 28.757812 5.988281 29.027344 5.851562 29.300781 5.714844 C 29.828125 5.457031 30.472656 5.675781 30.734375 6.203125 C 30.996094 6.734375 30.777344 7.375 30.246094 7.636719 C 29.984375 7.761719 29.722656 7.894531 29.464844 8.027344 C 29.308594 8.105469 29.140625 8.144531 28.976562 8.144531 Z M 28.976562 8.144531 " fill-opacity="0.52" fill-rule="nonzero"/><path fill="#ffffff" d="M 17.707031 17.078125 C 16.828125 17.078125 16.296875 16.046875 16.871094 15.335938 C 19.046875 12.644531 21.5625 10.375 24.570312 8.398438 C 25.066406 8.074219 25.730469 8.210938 26.054688 8.703125 C 26.378906 9.195312 26.242188 9.859375 25.75 10.183594 C 22.929688 12.035156 20.570312 14.160156 18.539062 16.675781 C 18.328125 16.941406 18.019531 17.078125 17.707031 17.078125 Z M 17.707031 17.078125 " fill-opacity="0.52" fill-rule="nonzero"/><path fill="#ffffff" d="M 60.746094 19.382812 C 60.152344 16.46875 58.449219 13.765625 56.078125 11.964844 C 55.609375 11.609375 55.519531 10.9375 55.875 10.46875 C 56.234375 9.996094 56.90625 9.90625 57.378906 10.265625 C 60.15625 12.375 62.148438 15.539062 62.847656 18.953125 C 62.964844 19.53125 62.589844 20.097656 62.011719 20.214844 C 61.421875 20.335938 60.863281 19.953125 60.746094 19.382812 Z M 60.746094 19.382812 " fill-opacity="0.52" fill-rule="nonzero"/><g clip-path="url(#e28a4e1609)"><path fill="#5ab1bb" d="M 9.09375 66.703125 L 6.585938 66.703125 L 6.585938 64.722656 L 6.304688 64.722656 L 6.304688 66.703125 L 3.796875 66.703125 L 3.796875 61.0625 L 6.304688 61.0625 L 6.304688 63.160156 L 6.585938 63.160156 L 6.585938 61.0625 L 9.09375 61.0625 Z M 9.09375 66.703125 " fill-opacity="1" fill-rule="nonzero"/></g><g clip-path="url(#4d838b8b3d)"><path fill="#a5c882" d="M 21.582031 66.703125 L 18.296875 66.703125 L 18.296875 61.0625 L 20.789062 61.0625 L 20.789062 64.894531 L 21.707031 64.894531 Z M 21.582031 66.703125 " fill-opacity="1" fill-rule="nonzero"/></g><path fill="#e75a7c" d="M 18.597656 63.757812 C 18.597656 65.722656 17.589844 66.703125 15.578125 66.703125 L 13.203125 66.703125 L 13.203125 61.0625 L 15.628906 61.0625 C 16.707031 61.0625 17.46875 61.296875 17.917969 61.761719 C 18.371094 62.222656 18.597656 62.886719 18.597656 63.757812 Z M 15.902344 65.277344 L 15.902344 62.75 L 15.621094 62.75 L 15.621094 65.277344 Z M 15.902344 65.277344 " fill-opacity="1" fill-rule="nonzero"/><g clip-path="url(#3bfc06bc4b)"><path fill="#fcf6bd" d="M 8.574219 62.113281 L 8.371094 62.230469 L 8.371094 65.558594 L 8.574219 65.679688 L 10.933594 67.058594 L 11.132812 67.175781 L 11.328125 67.058594 L 13.6875 65.679688 L 13.890625 65.558594 L 13.890625 62.230469 L 13.6875 62.113281 L 11.328125 60.730469 L 11.132812 60.617188 L 10.933594 60.730469 Z M 8.574219 62.113281 " fill-opacity="1" fill-rule="nonzero"/></g><g clip-path="url(#d56ee7a9f7)"><path stroke-linecap="butt" transform="matrix(0.0997359, 0, 0, 0.102599, 3.184854, 60.138851)" fill="none" stroke-linejoin="miter" d="M 54.036331 19.244113 L 51.999703 20.386301 L 51.999703 52.824424 L 54.036331 54.004684 L 77.692547 67.444423 L 79.690008 68.586611 L 81.648304 67.444423 L 105.30452 54.004684 L 107.341148 52.824424 L 107.341148 20.386301 L 105.30452 19.244113 L 81.648304 5.766302 L 79.690008 4.662187 L 77.692547 5.766302 Z M 54.036331 19.244113 " stroke="#2c363f" stroke-width="8" stroke-opacity="1" stroke-miterlimit="4"/></g><path fill="#dbc66e" d="M 11.132812 61.78125 L 9.382812 62.804688 L 9.382812 64.921875 L 11.132812 65.945312 L 12.878906 64.921875 L 12.878906 62.804688 Z M 11.132812 61.78125 " fill-opacity="1" fill-rule="nonzero"/><path fill="#f7dd72" d="M 11.132812 61.78125 L 9.371094 62.785156 L 9.371094 64.921875 L 11.132812 65.945312 Z M 11.132812 61.78125 " fill-opacity="1" fill-rule="nonzero"/></svg>